{
.appVersion = "1141";
DisplayStrings = (
".",
"/bullet",
">",
"/greaterequal",
"/lessequal",
P,
"¶",
"",
w
);
date = "2018-11-13 22:06:34 +0000";
familyName = "Snap-it mono-5.2";
fontMaster = (
{
alignmentZones = (
"{700, 15}",
"{500, 15}",
"{0, -15}",
"{-200, -15}"
);
ascender = 800;
capHeight = 700;
customParameters = (
{
name = "New Parameter";
value = "New Value";
}
);
descender = -200;
horizontalStems = (
48
);
id = "FBE272FB-87FC-41E6-9500-16DB44470123";
verticalStems = (
48
);
xHeight = 500;
}
);
glyphs = (
{
glyphname = A;
lastChange = "2018-11-15 14:29:13 +0000";
layers = (
{
layerId = "FBE272FB-87FC-41E6-9500-16DB44470123";
paths = (
{
closed = 1;
nodes = (
"495 8 LINE",
"286 700 LINE",
"235 700 LINE",
"26 8 LINE",
"72 -6 LINE",
"132 190 LINE",
"390 190 LINE",
"449 -6 LINE"
);
},
{
closed = 1;
nodes = (
"261 619 LINE",
"376 238 LINE",
"146 238 LINE"
);
}
);
width = 521;
}
);
unicode = 0041;
},
{
glyphname = Aacute;
lastChange = "2018-11-27 12:52:35 +0000";
layers = (
{
layerId = "FBE272FB-87FC-41E6-9500-16DB44470123";
paths = (
{
closed = 1;
nodes = (
"495 7 LINE",
"287 702 LINE",
"235 702 LINE",
"26 7 LINE",
"71 -7 LINE",
"131 189 LINE",
"390 189 LINE",
"450 -7 LINE"
);
},
{
closed = 1;
nodes = (
"261 619 LINE",
"375 238 LINE",
"145 238 LINE"
);
},
{
closed = 1;
nodes = (
"266 779 LINE",
"335 830 LINE",
"307 868 LINE",
"243 820 LINE",
"167 790 LINE",
"186 745 LINE"
);
}
);
width = 521;
}
);
unicode = "00C1,00E1";
},
{
glyphname = Acircumflex;
lastChange = "2018-11-27 12:52:29 +0000";
layers = (
{
layerId = "FBE272FB-87FC-41E6-9500-16DB44470123";
paths = (
{
closed = 1;
nodes = (
"495 8 LINE",
"286 701 LINE",
"236 701 LINE",
"26 8 LINE",
"71 -7 LINE",
"131 190 LINE",
"390 190 LINE",
"449 -7 LINE"
);
},
{
closed = 1;
nodes = (
"260 619 LINE",
"375 237 LINE",
"145 237 LINE"
);
},
{
closed = 1;
nodes = (
"260 803 LINE",
"340 735 LINE",
"371 771 LINE",
"277 853 LINE",
"244 853 LINE",
"150 771 LINE",
"180 735 LINE"
);
}
);
width = 521;
}
);
unicode = 00C2;
},
{
glyphname = Adieresis;
lastChange = "2018-11-27 12:52:41 +0000";
layers = (
{
layerId = "FBE272FB-87FC-41E6-9500-16DB44470123";
paths = (
{
closed = 1;
nodes = (
"189 763 LINE",
"208 763 LINE",
"224 774 LINE",
"230 793 LINE",
"224 811 LINE",
"208 823 LINE",
"189 823 LINE",
"174 811 LINE",
"168 793 LINE",
"174 774 LINE"
);
},
{
closed = 1;
nodes = (
"312 763 LINE",
"331 763 LINE",
"347 774 LINE",
"353 793 LINE",
"347 811 LINE",
"331 823 LINE",
"312 823 LINE",
"296 811 LINE",
"290 793 LINE",
"296 774 LINE"
);
},
{
closed = 1;
nodes = (
"495 8 LINE",
"286 701 LINE",
"235 701 LINE",
"26 8 LINE",
"72 -6 LINE",
"131 190 LINE",
"391 190 LINE",
"450 -6 LINE"
);
},
{
closed = 1;
nodes = (
"260 620 LINE",
"376 239 LINE",
"146 239 LINE"
);
}
);
width = 521;
}
);
unicode = 00C4;
},
{
glyphname = Agrave;
lastChange = "2018-11-27 12:52:51 +0000";
layers = (
{
layerId = "FBE272FB-87FC-41E6-9500-16DB44470123";
paths = (
{
closed = 1;
nodes = (
"495 7 LINE",
"287 702 LINE",
"235 702 LINE",
"26 7 LINE",
"71 -7 LINE",
"131 189 LINE",
"390 189 LINE",
"450 -7 LINE"
);
},
{
closed = 1;
nodes = (
"261 619 LINE",
"375 238 LINE",
"145 238 LINE"
);
},
{
closed = 1;
nodes = (
"336 744 LINE",
"356 788 LINE",
"285 820 LINE",
"223 871 LINE",
"192 833 LINE",
"260 779 LINE"
);
}
);
width = 521;
}
);
unicode = 00C0;
},
{
glyphname = Atilde;
lastChange = "2018-11-27 12:52:57 +0000";
layers = (
{
layerId = "FBE272FB-87FC-41E6-9500-16DB44470123";
paths = (
{
closed = 1;
nodes = (
"495 8 LINE",
"286 700 LINE",
"235 700 LINE",
"26 8 LINE",
"72 -6 LINE",
"132 190 LINE",
"390 190 LINE",
"449 -6 LINE"
);
},
{
closed = 1;
nodes = (
"261 619 LINE",
"376 238 LINE",
"146 238 LINE"
);
},
{
closed = 1;
nodes = (
"347 794 LINE",
"324 785 LINE",
"305 787 LINE",
"291 796 LINE",
"261 825 LINE",
"232 845 LINE",
"192 849 LINE",
"147 832 LINE",
"121 794 LINE",
"114 759 LINE",
"153 753 LINE",
"160 779 LINE",
"175 798 LINE",
"197 809 LINE",
"217 806 LINE",
"231 796 LINE",
"261 767 LINE",
"291 748 LINE",
"330 743 LINE",
"375 760 LINE",
"401 800 LINE",
"408 830 LINE",
"369 836 LINE",
"360 806 LINE"
);
}
);
width = 521;
}
);
unicode = "00C3,00E3";
},
{
glyphname = AE;
lastChange = "2018-11-17 02:15:05 +0000";
layers = (
{
layerId = "FBE272FB-87FC-41E6-9500-16DB44470123";
paths = (
{
closed = 1;
nodes = (
"248 622 LINE",
"248 221 LINE",
"137 221 LINE"
);
},
{
closed = 1;
nodes = (
"27 6 LINE",
"73 -6 LINE",
"124 174 LINE",
"248 174 LINE",
"248 0 LINE",
"473 0 LINE",
"473 47 LINE",
"296 47 LINE",
"296 324 LINE",
"390 324 LINE",
"390 373 LINE",
"296 373 LINE",
"296 652 LINE",
"473 652 LINE",
"473 700 LINE",
"220 700 LINE"
);
}
);
width = 521;
}
);
unicode = "00C6,00E6";
},
{
glyphname = B;
lastChange = "2018-11-14 22:17:45 +0000";
layers = (
{
layerId = "FBE272FB-87FC-41E6-9500-16DB44470123";
paths = (
{
closed = 1;
nodes = (
"46 0 LINE",
"46 705 LINE",
"273 705 LINE",
"337 693 LINE",
"402 657 LINE",
"447 601 LINE",
"468 529 LINE",
"457 452 LINE",
"418 393 LINE",
"372 362 LINE",
"435 326 LINE",
"478 265 LINE",
"493 191 LINE",
"480 116 LINE",
"441 54 LINE",
"373 11 LINE",
"301 0 LINE"
);
},
{
closed = 1;
nodes = (
"297 48 LINE",
"356 56 LINE",
"406 88 LINE",
"435 133 LINE",
"445 191 LINE",
"434 246 LINE",
"403 290 LINE",
"320 336 LINE",
"94 336 LINE",
"94 48 LINE"
);
},
{
closed = 1;
nodes = (
"319 383 LINE",
"384 427 LINE",
"411 469 LINE",
"419 526 LINE",
"404 579 LINE",
"372 619 LINE",
"322 647 LINE",
"267 657 LINE",
"94 657 LINE",
"94 383 LINE"
);
}
);
width = 521;
}
);
unicode = 0042;
},
{
glyphname = Bstroke;
lastChange = "2018-11-27 12:05:22 +0000";
layers = (
{
layerId = "FBE272FB-87FC-41E6-9500-16DB44470123";
paths = (
{
closed = 1;
nodes = (
"74 0 LINE",
"74 168 LINE",
"5 168 LINE",
"5 216 LINE",
"74 216 LINE",
"74 705 LINE",
"273 705 LINE",
"337 693 LINE",
"402 657 LINE",
"447 601 LINE",
"468 529 LINE",
"457 452 LINE",
"418 393 LINE",
"372 362 LINE",
"435 326 LINE",
"478 265 LINE",
"493 191 LINE",
"480 116 LINE",
"441 54 LINE",
"373 11 LINE",
"301 0 LINE"
);
},
{
closed = 1;
nodes = (
"297 48 LINE",
"356 56 LINE",
"406 88 LINE",
"435 133 LINE",
"445 191 LINE",
"434 246 LINE",
"403 290 LINE",
"320 336 LINE",
"122 336 LINE",
"122 216 LINE",
"231 216 LINE",
"231 168 LINE",
"122 168 LINE",
"122 48 LINE"
);
},
{
closed = 1;
nodes = (
"319 383 LINE",
"384 427 LINE",
"411 469 LINE",
"419 526 LINE",
"404 579 LINE",
"372 619 LINE",
"322 647 LINE",
"267 657 LINE",
"122 657 LINE",
"122 383 LINE"
);
}
);
width = 521;
}
);
unicode = "0243,0180";
},
{
glyphname = C;
lastChange = "2018-11-14 22:06:43 +0000";
layers = (
{
layerId = "FBE272FB-87FC-41E6-9500-16DB44470123";
paths = (
{
closed = 1;
nodes = (
"276 -18 LINE",
"180 8 LINE",
"100 73 LINE",
"53 174 LINE",
"34 286 LINE",
"34 418 LINE",
"51 515 LINE",
"89 604 LINE",
"154 676 LINE",
"238 715 LINE",
"311 715 LINE",
"386 687 LINE",
"438 640 LINE",
"477 577 LINE",
"437 552 LINE",
"401 610 LINE",
"360 646 LINE",
"302 668 LINE",
"249 668 LINE",
"183 637 LINE",
"130 578 LINE",
"97 501 LINE",
"81 412 LINE",
"81 289 LINE",
"99 189 LINE",
"139 104 LINE",
"202 51 LINE",
"278 31 LINE",
"348 43 LINE",
"408 85 LINE",
"458 170 LINE",
"498 146 LINE",
"444 53 LINE",
"367 -2 LINE"
);
}
);
width = 521;
}
);
unicode = 0043;
},
{
glyphname = Ccedilla;
lastChange = "2018-11-15 15:59:55 +0000";
layers = (
{
layerId = "FBE272FB-87FC-41E6-9500-16DB44470123";
paths = (
{
closed = 1;
nodes = (
"363 4 LINE",
"439 59 LINE",
"494 149 LINE",
"453 174 LINE",
"404 91 LINE",
"343 49 LINE",
"275 36 LINE",
"200 56 LINE",
"136 108 LINE",
"98 192 LINE",
"80 293 LINE",
"80 415 LINE",
"96 504 LINE",
"128 579 LINE",
"180 637 LINE",
"245 668 LINE",
"299 668 LINE",
"356 647 LINE",
"396 610 LINE",
"432 553 LINE",
"472 577 LINE",
"434 641 LINE",
"381 687 LINE",
"308 716 LINE",
"236 716 LINE",
"152 676 LINE",
"88 604 LINE",
"50 516 LINE",
"33 420 LINE",
"32 290 LINE",
"51 177 LINE",
"99 79 LINE",
"177 14 LINE",
"252 -6 LINE",
"252 -46 LINE",
"300 -69 LINE",
"314 -88 LINE",
"300 -114 LINE",
"269 -125 LINE",
"221 -107 LINE",
"205 -151 LINE",
"269 -174 LINE",
"334 -151 LINE",
"367 -86 LINE",
"334 -31 LINE",
"300 -15 LINE",
"300 -7 LINE"
);
}
);
width = 521;
}
);
unicode = 00C7;
},
{
glyphname = D;
lastChange = "2018-11-14 22:18:31 +0000";
layers = (
{
layerId = "FBE272FB-87FC-41E6-9500-16DB44470123";
paths = (
{
closed = 1;
nodes = (
"46 0 LINE",
"46 704 LINE",
"207 704 LINE",
"290 694 LINE",
"371 653 LINE",
"431 590 LINE",
"470 502 LINE",
"487 405 LINE",
"486 296 LINE",
"472 209 LINE",
"433 118 LINE",
"372 55 LINE",
"299 13 LINE",
"213 0 LINE"
);
},
{
closed = 1;
nodes = (
"210 48 LINE",
"283 59 LINE",
"343 93 LINE",
"392 144 LINE",
"427 223 LINE",
"439 302 LINE",
"439 403 LINE",
"425 488 LINE",
"391 563 LINE",
"342 615 LINE",
"277 647 LINE",
"204 656 LINE",
"94 656 LINE",
"94 656 OFFCURVE",
"94 48 OFFCURVE",
"94 48 CURVE"
);
}
);
width = 521;
}
);
unicode = 0044;
},
{
glyphname = E;
lastChange = "2018-11-14 22:19:20 +0000";
layers = (
{
layerId = "FBE272FB-87FC-41E6-9500-16DB44470123";
paths = (
{
closed = 1;
nodes = (
"475 652 LINE",
"475 700 LINE",
"46 700 LINE",
"46 0 LINE",
"475 0 LINE",
"475 48 LINE",
"94 48 LINE",
"94 325 LINE",
"271 325 LINE",
"271 373 LINE",
"94 373 LINE",
"94 652 LINE"
);
}
);
width = 521;
}
);
unicode = 0045;
},
{
glyphname = Eacute;
lastChange = "2018-11-27 12:53:04 +0000";
layers = (
{
layerId = "FBE272FB-87FC-41E6-9500-16DB44470123";
paths = (
{
closed = 1;
nodes = (
"476 653 LINE",
"476 700 LINE",
"50 700 LINE",
"50 0 LINE",
"476 0 LINE",
"476 47 LINE",
"98 47 LINE",
"98 325 LINE",
"275 325 LINE",
"275 372 LINE",
"98 372 LINE",
"98 653 LINE"
);
},
{
closed = 1;
nodes = (
"271 788 LINE",
"340 839 LINE",
"312 877 LINE",
"248 829 LINE",
"172 799 LINE",
"191 754 LINE"
);
}
);
width = 521;
}
);
unicode = 00C9;
},
{
glyphname = Ecircumflex;
lastChange = "2018-11-27 12:53:15 +0000";
layers = (
{
layerId = "FBE272FB-87FC-41E6-9500-16DB44470123";
paths = (
{
closed = 1;
nodes = (
"476 652 LINE",
"476 699 LINE",
"50 699 LINE",
"50 0 LINE",
"476 0 LINE",
"476 47 LINE",
"98 47 LINE",
"98 325 LINE",
"274 325 LINE",
"274 373 LINE",
"98 373 LINE",
"98 652 LINE"
);
},
{
closed = 1;
nodes = (
"274 824 LINE",
"353 755 LINE",
"384 791 LINE",
"291 873 LINE",
"257 873 LINE",
"165 791 LINE",
"197 755 LINE"
);
}
);
width = 521;
}
);
unicode = 00CA;
},
{
glyphname = Edieresis;
lastChange = "2018-11-27 12:53:21 +0000";
layers = (
{
layerId = "FBE272FB-87FC-41E6-9500-16DB44470123";
paths = (
{
closed = 1;
nodes = (
"195 771 LINE",
"214 771 LINE",
"229 782 LINE",
"235 800 LINE",
"229 819 LINE",
"214 830 LINE",
"195 830 LINE",
"180 819 LINE",
"174 800 LINE",
"180 782 LINE"
);
},
{
closed = 1;
nodes = (
"317 771 LINE",
"336 771 LINE",
"352 782 LINE",
"357 800 LINE",
"352 819 LINE",
"336 830 LINE",
"317 830 LINE",
"302 819 LINE",
"296 800 LINE",
"302 782 LINE"
);
},
{
closed = 1;
nodes = (
"476 654 LINE",
"476 700 LINE",
"50 700 LINE",
"50 0 LINE",
"476 0 LINE",
"476 47 LINE",
"97 47 LINE",
"97 326 LINE",
"275 326 LINE",
"275 374 LINE",
"97 374 LINE",
"97 654 LINE"
);
}
);
width = 521;
}
);
unicode = 00CB;
},
{
glyphname = Egrave;
lastChange = "2018-11-27 12:53:29 +0000";
layers = (
{
layerId = "FBE272FB-87FC-41E6-9500-16DB44470123";
paths = (
{
closed = 1;
nodes = (
"476 653 LINE",
"476 701 LINE",
"50 701 LINE",
"50 0 LINE",
"476 0 LINE",
"476 48 LINE",
"98 48 LINE",
"98 326 LINE",
"275 326 LINE",
"275 373 LINE",
"98 373 LINE",
"98 653 LINE"
);
},
{
closed = 1;
nodes = (
"334 753 LINE",
"354 796 LINE",
"283 829 LINE",
"222 879 LINE",
"191 842 LINE",
"258 788 LINE"
);
}
);
width = 521;
}
);
unicode = 00C8;
},
{
glyphname = F;
lastChange = "2018-11-14 22:21:48 +0000";
layers = (
{
layerId = "FBE272FB-87FC-41E6-9500-16DB44470123";
paths = (
{
closed = 1;
nodes = (
"474 652 LINE",
"474 700 LINE",
"46 700 LINE",
"47 0 LINE",
"94 0 LINE",
"94 365 LINE",
"272 365 LINE",
"272 413 LINE",
"94 413 LINE",
"94 652 LINE"
);
}
);
width = 521;
}
);
unicode = 0046;
},
{
glyphname = G;
lastChange = "2018-11-14 22:20:31 +0000";
layers = (
{
layerId = "FBE272FB-87FC-41E6-9500-16DB44470123";
paths = (
{
closed = 1;
nodes = (
"270 -19 LINE",
"171 1 LINE",
"89 71 LINE",
"45 173 LINE",
"27 282 LINE",
"27 416 LINE",
"44 512 LINE",
"78 598 LINE",
"131 662 LINE",
"200 702 LINE",
"281 717 LINE",
"361 698 LINE",
"426 655 LINE",
"469 590 LINE",
"430 564 LINE",
"391 621 LINE",
"342 654 LINE",
"280 668 LINE",
"216 657 LINE",
"163 626 LINE",
"120 574 LINE",
"90 499 LINE",
"74 410 LINE",
"74 284 LINE",
"90 187 LINE",
"129 100 LINE",
"193 45 LINE",
"270 29 LINE",
"337 43 LINE",
"389 79 LINE",
"427 135 LINE",
"446 212 LINE",
"446 263 LINE",
"285 263 LINE",
"285 311 LINE",
"494 311 LINE",
"494 207 LINE",
"470 116 LINE",
"424 45 LINE",
"355 -1 LINE"
);
}
);
width = 521;
}
);
unicode = 0047;
},
{
glyphname = H;
lastChange = "2018-11-14 21:46:32 +0000";
layers = (
{
layerId = "FBE272FB-87FC-41E6-9500-16DB44470123";
paths = (
{
closed = 1;
nodes = (
"429 700 LINE",
"429 374 LINE",
"92 374 LINE",
"92 700 LINE",
"44 700 LINE",
"44 0 LINE",
"92 0 LINE",
"92 326 LINE",
"429 326 LINE",
"429 0 LINE",
"477 0 LINE",
"477 700 LINE"
);
}
);
width = 521;
}
);
unicode = 0048;
},
{
glyphname = I;
lastChange = "2018-11-14 22:23:19 +0000";
layers = (
{
layerId = "FBE272FB-87FC-41E6-9500-16DB44470123";
paths = (
{
closed = 1;
nodes = (
"475 653 LINE",
"475 700 LINE",
"46 700 LINE",
"46 653 LINE",
"237 653 LINE",
"237 48 LINE",
"46 48 LINE",
"46 0 LINE",
"475 0 LINE",
"475 48 LINE",
"284 48 LINE",
"284 653 LINE"
);
}
);
width = 521;
}
);
unicode = 0049;
},
{
glyphname = Icircumflex;
lastChange = "2018-11-27 12:53:38 +0000";
layers = (
{
layerId = "FBE272FB-87FC-41E6-9500-16DB44470123";
paths = (
{
closed = 1;
nodes = (
"46 652 LINE",
"236 652 LINE",
"236 48 LINE",
"46 48 LINE",
"46 0 LINE",
"475 0 LINE",
"475 48 LINE",
"284 48 LINE",
"284 652 LINE",
"475 652 LINE",
"475 700 LINE",
"46 700 LINE"
);
},
{
closed = 1;
nodes = (
"260 822 LINE",
"339 754 LINE",
"370 790 LINE",
"276 870 LINE",
"243 870 LINE",
"152 790 LINE",
"182 754 LINE"
);
}
);
width = 521;
}
);
unicode = 00CE;
},
{
glyphname = Idieresis;
lastChange = "2018-11-27 12:53:44 +0000";
layers = (
{
layerId = "FBE272FB-87FC-41E6-9500-16DB44470123";
paths = (
{
closed = 1;
nodes = (
"191 768 LINE",
"210 768 LINE",
"225 780 LINE",
"231 798 LINE",
"225 816 LINE",
"210 827 LINE",
"191 827 LINE",
"175 816 LINE",
"169 798 LINE",
"175 780 LINE"
);
},
{
closed = 1;
nodes = (
"312 768 LINE",
"331 768 LINE",
"347 780 LINE",
"352 798 LINE",
"347 816 LINE",
"331 827 LINE",
"312 827 LINE",
"297 816 LINE",
"291 798 LINE",
"297 780 LINE"
);
},
{
closed = 1;
nodes = (
"46 653 LINE",
"237 653 LINE",
"237 46 LINE",
"46 46 LINE",
"46 -1 LINE",
"475 -1 LINE",
"475 46 LINE",
"285 46 LINE",
"285 653 LINE",
"475 653 LINE",
"475 700 LINE",
"46 700 LINE"
);
}
);
width = 521;
}
);
unicode = 00CF;
},
{
glyphname = Igrave;
lastChange = "2018-11-27 12:53:49 +0000";
layers = (
{
layerId = "FBE272FB-87FC-41E6-9500-16DB44470123";
paths = (
{
closed = 1;
nodes = (
"46 652 LINE",
"237 652 LINE",
"237 48 LINE",
"46 48 LINE",
"46 0 LINE",
"475 0 LINE",
"475 48 LINE",
"284 48 LINE",
"284 652 LINE",
"475 652 LINE",
"475 700 LINE",
"46 700 LINE"
);
},
{
closed = 1;
nodes = (
"330 756 LINE",
"350 799 LINE",
"279 832 LINE",
"218 882 LINE",
"187 845 LINE",
"254 791 LINE"
);
}
);
width = 521;
}
);
unicode = 00CC;
},
{
glyphname = J;
lastChange = "2018-11-14 22:31:52 +0000";
layers = (
{
layerId = "FBE272FB-87FC-41E6-9500-16DB44470123";
paths = (
{
closed = 1;
nodes = (
"236 -21 LINE",
"144 1 LINE",
"75 54 LINE",
"28 139 LINE",
"70 162 LINE",
"112 86 LINE",
"165 46 LINE",
"238 29 LINE",
"315 39 LINE",
"375 77 LINE",
"414 150 LINE",
"427 240 LINE",
"427 652 LINE",
"257 652 LINE",
"257 700 LINE",
"475 700 LINE",
"475 235 LINE",
"461 134 LINE",
"411 43 LINE",
"332 -7 LINE"
);
}
);
width = 521;
}
);
unicode = 004A;
},
{
glyphname = K;
lastChange = "2018-11-15 14:11:00 +0000";
layers = (
{
layerId = "FBE272FB-87FC-41E6-9500-16DB44470123";
paths = (
{
closed = 1;
nodes = (
"459 -11 LINE",
"495 21 LINE",
"200 366 LINE",
"495 683 LINE",
"459 716 LINE",
"115 344 LINE",
"104 345 LINE",
"97 352 LINE",
"97 700 LINE",
"50 700 LINE",
"50 0 LINE",
"97 0 LINE",
"97 255 LINE",
"167 330 LINE"
);
}
);
width = 521;
}
);
unicode = 004B;
},
{
glyphname = L;
lastChange = "2018-11-15 14:12:09 +0000";
layers = (
{
layerId = "FBE272FB-87FC-41E6-9500-16DB44470123";
paths = (
{
closed = 1;
nodes = (
"478 0 LINE",
"50 0 LINE",
"50 700 LINE",
"98 700 LINE",
"98 48 LINE",
"478 48 LINE"
);
}
);
width = 521;
}
);
unicode = 004C;
},
{
glyphname = M;
lastChange = "2018-11-15 14:13:06 +0000";
layers = (
{
layerId = "FBE272FB-87FC-41E6-9500-16DB44470123";
paths = (
{
closed = 1;
nodes = (
"477 0 LINE",
"429 0 LINE",
"429 583 LINE",
"280 256 LINE",
"241 256 LINE",
"92 583 LINE",
"92 0 LINE",
"44 0 LINE",
"44 700 LINE",
"91 700 LINE",
"261 330 LINE",
"430 700 LINE",
"477 700 LINE"
);
}
);
width = 521;
}
);
unicode = 004D;
},
{
glyphname = N;
lastChange = "2018-11-15 14:14:53 +0000";
layers = (
{
layerId = "FBE272FB-87FC-41E6-9500-16DB44470123";
paths = (
{
closed = 1;
nodes = (
"478 -5 LINE",
"433 -5 LINE",
"91 602 LINE",
"91 0 LINE",
"43 0 LINE",
"43 705 LINE",
"89 705 LINE",
"430 98 LINE",
"430 700 LINE",
"478 700 LINE"
);
}
);
width = 521;
}
);
unicode = 004E;
},
{
glyphname = Nacute;
lastChange = "2018-11-27 12:53:56 +0000";
layers = (
{
layerId = "FBE272FB-87FC-41E6-9500-16DB44470123";
paths = (
{
closed = 1;
nodes = (
"478 -5 LINE",
"433 -5 LINE",
"91 602 LINE",
"91 0 LINE",
"43 0 LINE",
"43 705 LINE",
"89 705 LINE",
"430 98 LINE",
"430 700 LINE",
"478 700 LINE"
);
},
{
closed = 1;
nodes = (
"284 790 LINE",
"353 841 LINE",
"325 879 LINE",
"261 831 LINE",
"185 801 LINE",
"204 756 LINE"
);
}
);
width = 521;
}
);
unicode = "0143,0144";
},
{
glyphname = Ntilde;
lastChange = "2018-11-27 12:54:03 +0000";
layers = (
{
layerId = "FBE272FB-87FC-41E6-9500-16DB44470123";
paths = (
{
closed = 1;
nodes = (
"478 -5 LINE",
"433 -5 LINE",
"91 602 LINE",
"91 0 LINE",
"43 0 LINE",
"43 705 LINE",
"89 705 LINE",
"430 98 LINE",
"430 700 LINE",
"478 700 LINE"
);
},
{
closed = 1;
nodes = (
"344 799 LINE",
"321 790 LINE",
"302 792 LINE",
"288 801 LINE",
"258 830 LINE",
"229 850 LINE",
"189 854 LINE",
"144 837 LINE",
"118 799 LINE",
"111 764 LINE",
"150 758 LINE",
"157 784 LINE",
"172 803 LINE",
"194 814 LINE",
"214 811 LINE",
"228 801 LINE",
"258 772 LINE",
"288 753 LINE",
"327 748 LINE",
"372 765 LINE",
"398 805 LINE",
"405 835 LINE",
"366 841 LINE",
"357 811 LINE"
);
}
);
width = 521;
}
);
unicode = "00D1,00F1";
},
{
glyphname = O;
lastChange = "2018-11-15 14:37:53 +0000";
layers = (
{
layerId = "FBE272FB-87FC-41E6-9500-16DB44470123";
paths = (
{
closed = 1;
nodes = (
"165 2 LINE",
"91 69 LINE",
"46 167 LINE",
"25 266 LINE",
"25 394 LINE",
"44 512 LINE",
"91 623 LINE",
"168 698 LINE",
"260 721 LINE",
"352 698 LINE",
"429 623 LINE",
"477 512 LINE",
"496 391 LINE",
"496 266 LINE",
"475 167 LINE",
"429 69 LINE",
"356 2 LINE",
"260 -22 LINE"
);
},
{
closed = 1;
nodes = (
"260 27 LINE",
"332 45 LINE",
"390 98 LINE",
"428 182 LINE",
"447 271 LINE",
"447 389 LINE",
"430 499 LINE",
"389 596 LINE",
"328 655 LINE",
"260 672 LINE",
"193 655 LINE",
"132 596 LINE",
"90 499 LINE",
"73 389 LINE",
"73 271 LINE",
"92 182 LINE",
"131 98 LINE",
"188 45 LINE"
);
}
);
width = 521;
}
);
unicode = 004F;
},
{
glyphname = Ocircumflex;
lastChange = "2018-11-27 12:54:13 +0000";
layers = (
{
layerId = "FBE272FB-87FC-41E6-9500-16DB44470123";
paths = (
{
closed = 1;
nodes = (
"165 2 LINE",
"91 69 LINE",
"46 167 LINE",
"25 266 LINE",
"25 394 LINE",
"44 512 LINE",
"91 623 LINE",
"168 698 LINE",
"260 721 LINE",
"352 698 LINE",
"429 623 LINE",
"477 512 LINE",
"496 391 LINE",
"496 266 LINE",
"475 167 LINE",
"429 69 LINE",
"356 2 LINE",
"260 -22 LINE"
);
},
{
closed = 1;
nodes = (
"260 27 LINE",
"332 45 LINE",
"390 98 LINE",
"428 182 LINE",
"447 271 LINE",
"447 389 LINE",
"430 499 LINE",
"389 596 LINE",
"328 655 LINE",
"260 672 LINE",
"193 655 LINE",
"132 596 LINE",
"90 499 LINE",
"73 389 LINE",
"73 271 LINE",
"92 182 LINE",
"131 98 LINE",
"188 45 LINE"
);
},
{
closed = 1;
nodes = (
"259 826 LINE",
"338 758 LINE",
"369 794 LINE",
"275 874 LINE",
"242 874 LINE",
"151 794 LINE",
"181 758 LINE"
);
}
);
width = 521;
}
);
unicode = 00D4;
},
{
glyphname = Odieresis;
lastChange = "2018-11-27 12:54:19 +0000";
layers = (
{
layerId = "FBE272FB-87FC-41E6-9500-16DB44470123";
paths = (
{
closed = 1;
nodes = (
"165 2 LINE",
"91 69 LINE",
"46 167 LINE",
"25 266 LINE",
"25 394 LINE",
"44 512 LINE",
"91 623 LINE",
"168 698 LINE",
"260 721 LINE",
"352 698 LINE",
"429 623 LINE",
"477 512 LINE",
"496 391 LINE",
"496 266 LINE",
"475 167 LINE",
"429 69 LINE",
"356 2 LINE",
"260 -22 LINE"
);
},
{
closed = 1;
nodes = (
"260 27 LINE",
"332 45 LINE",
"390 98 LINE",
"428 182 LINE",
"447 271 LINE",
"447 389 LINE",
"430 499 LINE",
"389 596 LINE",
"328 655 LINE",
"260 672 LINE",
"193 655 LINE",
"132 596 LINE",
"90 499 LINE",
"73 389 LINE",
"73 271 LINE",
"92 182 LINE",
"131 98 LINE",
"188 45 LINE"
);
},
{
closed = 1;
nodes = (
"189 763 LINE",
"208 763 LINE",
"224 774 LINE",
"230 793 LINE",
"224 811 LINE",
"208 823 LINE",
"189 823 LINE",
"174 811 LINE",
"168 793 LINE",
"174 774 LINE"
);
},
{
closed = 1;
nodes = (
"312 763 LINE",
"331 763 LINE",
"347 774 LINE",
"353 793 LINE",
"347 811 LINE",
"331 823 LINE",
"312 823 LINE",
"296 811 LINE",
"290 793 LINE",
"296 774 LINE"
);
}
);
width = 521;
}
);
unicode = 00D6;
},
{
glyphname = OE;
lastChange = "2018-11-17 00:35:51 +0000";
layers = (
{
layerId = "FBE272FB-87FC-41E6-9500-16DB44470123";
paths = (
{
closed = 1;
nodes = (
"224 703 LINE",
"169 720 LINE",
"112 704 LINE",
"72 660 LINE",
"47 588 LINE",
"34 475 LINE",
"30 359 LINE",
"34 246 LINE",
"47 130 LINE",
"69 49 LINE",
"110 -3 LINE",
"169 -21 LINE",
"226 -7 LINE",
"250 13 LINE",
"250 0 LINE",
"475 0 LINE",
"475 47 LINE",
"297 47 LINE",
"297 325 LINE",
"408 325 LINE",
"408 372 LINE",
"297 372 LINE",
"297 652 LINE",
"475 652 LINE",
"475 700 LINE",
"250 700 LINE",
"250 688 LINE"
);
},
{
closed = 1;
nodes = (
"198 35 LINE",
"171 28 LINE",
"138 38 LINE",
"113 72 LINE",
"94 138 LINE",
"81 249 LINE",
"77 359 LINE",
"81 470 LINE",
"94 577 LINE",
"114 635 LINE",
"138 662 LINE",
"168 670 LINE",
"197 664 LINE",
"224 647 LINE",
"250 614 LINE",
"250 93 LINE",
"227 54 LINE"
);
}
);
width = 521;
}
);
unicode = 0152;
},
{
glyphname = P;
lastChange = "2018-11-15 14:50:40 +0000";
layers = (
{
layerId = "FBE272FB-87FC-41E6-9500-16DB44470123";
paths = (
{
closed = 1;
nodes = (
"45 0 LINE",
"45 700 LINE",
"283 700 LINE",
"358 690 LINE",
"426 655 LINE",
"477 586 LINE",
"497 501 LINE",
"484 428 LINE",
"446 360 LINE",
"377 318 LINE",
"295 299 LINE",
"93 299 LINE",
"93 0 LINE"
);
},
{
closed = 1;
nodes = (
"289 347 LINE",
"358 363 LINE",
"411 395 LINE",
"438 444 LINE",
"448 500 LINE",
"433 566 LINE",
"395 617 LINE",
"343 643 LINE",
"278 652 LINE",
"93 652 LINE",
"93 347 LINE"
);
}
);
width = 521;
}
);
unicode = 0050;
},
{
glyphname = Q;
lastChange = "2018-11-15 14:53:10 +0000";
layers = (
{
layerId = "FBE272FB-87FC-41E6-9500-16DB44470123";
paths = (
{
closed = 1;
nodes = (
"494 276 LINE",
"494 409 LINE",
"479 517 LINE",
"431 627 LINE",
"352 703 LINE",
"260 726 LINE",
"168 703 LINE",
"89 627 LINE",
"42 515 LINE",
"23 397 LINE",
"23 266 LINE",
"44 166 LINE",
"89 67 LINE",
"165 0 LINE",
"260 -24 LINE",
"356 0 LINE",
"397 38 LINE",
"457 -17 LINE",
"490 19 LINE",
"432 72 LINE",
"442 80 LINE",
"477 173 LINE"
);
},
{
closed = 1;
nodes = (
"332 44 LINE",
"260 26 LINE",
"188 44 LINE",
"129 97 LINE",
"90 181 LINE",
"71 271 LINE",
"71 392 LINE",
"88 501 LINE",
"130 599 LINE",
"191 660 LINE",
"260 677 LINE",
"328 660 LINE",
"390 599 LINE",
"432 503 LINE",
"446 407 LINE",
"446 282 LINE",
"430 186 LINE",
"401 109 LINE",
"397 106 LINE",
"344 152 LINE",
"311 118 LINE",
"361 71 LINE"
);
}
);
width = 521;
}
);
unicode = 0051;
},
{
glyphname = R;
lastChange = "2018-11-15 14:59:08 +0000";
layers = (
{
layerId = "FBE272FB-87FC-41E6-9500-16DB44470123";
paths = (
{
closed = 1;
nodes = (
"456 377 LINE",
"487 441 LINE",
"494 519 LINE",
"475 596 LINE",
"424 655 LINE",
"354 690 LINE",
"283 700 LINE",
"46 700 LINE",
"46 0 LINE",
"94 0 LINE",
"94 294 LINE",
"278 294 LINE",
"449 -6 LINE",
"490 16 LINE",
"327 300 LINE",
"389 320 LINE"
);
},
{
closed = 1;
nodes = (
"278 652 LINE",
"340 643 LINE",
"394 617 LINE",
"431 573 LINE",
"447 515 LINE",
"440 454 LINE",
"417 407 LINE",
"366 363 LINE",
"294 342 LINE",
"94 342 LINE",
"94 652 LINE"
);
}
);
width = 521;
}
);
unicode = 0052;
},
{
glyphname = S;
lastChange = "2018-11-15 15:01:18 +0000";
layers = (
{
layerId = "FBE272FB-87FC-41E6-9500-16DB44470123";
paths = (
{
closed = 1;
nodes = (
"245 -25 LINE",
"155 -9 LINE",
"76 50 LINE",
"24 136 LINE",
"65 162 LINE",
"113 83 LINE",
"174 38 LINE",
"247 24 LINE",
"325 33 LINE",
"392 75 LINE",
"435 137 LINE",
"447 191 LINE",
"433 234 LINE",
"392 278 LINE",
"325 308 LINE",
"168 366 LINE",
"104 396 LINE",
"52 460 LINE",
"34 534 LINE",
"56 617 LINE",
"108 672 LINE",
"176 714 LINE",
"269 725 LINE",
"358 707 LINE",
"431 661 LINE",
"483 596 LINE",
"445 565 LINE",
"397 625 LINE",
"340 661 LINE",
"267 676 LINE",
"193 667 LINE",
"139 634 LINE",
"100 593 LINE",
"84 533 LINE",
"96 483 LINE",
"134 436 LINE",
"187 411 LINE",
"344 353 LINE",
"422 318 LINE",
"475 260 LINE",
"497 194 LINE",
"480 117 LINE",
"427 40 LINE",
"341 -14 LINE"
);
}
);
width = 521;
}
);
unicode = 0053;
},
{
glyphname = T;
lastChange = "2018-11-15 15:02:57 +0000";
layers = (
{
layerId = "FBE272FB-87FC-41E6-9500-16DB44470123";
paths = (
{
closed = 1;
nodes = (
"478 700 LINE",
"43 700 LINE",
"43 652 LINE",
"236 652 LINE",
"236 0 LINE",
"284 0 LINE",
"284 652 LINE",
"478 652 LINE"
);
}
);
width = 521;
}
);
unicode = 0054;
},
{
glyphname = U;
lastChange = "2018-11-15 15:18:36 +0000";
layers = (
{
layerId = "FBE272FB-87FC-41E6-9500-16DB44470123";
paths = (
{
closed = 1;
nodes = (
"260 -21 LINE",
"160 -1 LINE",
"96 45 LINE",
"53 114 LINE",
"40 197 LINE",
"40 700 LINE",
"88 700 LINE",
"88 199 LINE",
"99 130 LINE",
"132 79 LINE",
"180 44 LINE",
"260 28 LINE",
"341 44 LINE",
"389 79 LINE",
"422 130 LINE",
"432 199 LINE",
"432 700 LINE",
"481 700 LINE",
"481 195 LINE",
"468 114 LINE",
"425 45 LINE",
"360 -1 LINE"
);
}
);
width = 521;
}
);
unicode = 0055;
},
{
glyphname = Uacute;
lastChange = "2018-11-27 12:54:32 +0000";
layers = (
{
layerId = "FBE272FB-87FC-41E6-9500-16DB44470123";
paths = (
{
closed = 1;
nodes = (
"260 -21 LINE",
"160 -1 LINE",
"96 45 LINE",
"53 114 LINE",
"40 197 LINE",
"40 700 LINE",
"88 700 LINE",
"88 199 LINE",
"99 130 LINE",
"132 79 LINE",
"180 44 LINE",
"260 28 LINE",
"341 44 LINE",
"389 79 LINE",
"422 130 LINE",
"432 199 LINE",
"432 700 LINE",
"481 700 LINE",
"481 195 LINE",
"468 114 LINE",
"425 45 LINE",
"360 -1 LINE"
);
},
{
closed = 1;
nodes = (
"275 779 LINE",
"344 830 LINE",
"316 868 LINE",
"252 820 LINE",
"176 790 LINE",
"195 745 LINE"
);
}
);
width = 521;
}
);
unicode = "00DA,00FA";
},
{
glyphname = Ucircumflex;
lastChange = "2018-11-27 12:54:38 +0000";
layers = (
{
layerId = "FBE272FB-87FC-41E6-9500-16DB44470123";
paths = (
{
closed = 1;
nodes = (
"260 -21 LINE",
"160 -1 LINE",
"96 45 LINE",
"53 114 LINE",
"40 197 LINE",
"40 700 LINE",
"88 700 LINE",
"88 199 LINE",
"99 130 LINE",
"132 79 LINE",
"180 44 LINE",
"260 28 LINE",
"341 44 LINE",
"389 79 LINE",
"422 130 LINE",
"432 199 LINE",
"432 700 LINE",
"481 700 LINE",
"481 195 LINE",
"468 114 LINE",
"425 45 LINE",
"360 -1 LINE"
);
},
{
closed = 1;
nodes = (
"260 821 LINE",
"339 753 LINE",
"370 789 LINE",
"276 869 LINE",
"243 869 LINE",
"152 789 LINE",
"182 753 LINE"
);
}
);
width = 521;
}
);
unicode = 00DB;
},
{
glyphname = Udieresis;
lastChange = "2018-11-27 12:54:43 +0000";
layers = (
{
layerId = "FBE272FB-87FC-41E6-9500-16DB44470123";
paths = (
{
closed = 1;
nodes = (
"260 -21 LINE",
"160 -1 LINE",
"96 45 LINE",
"53 114 LINE",
"40 197 LINE",
"40 700 LINE",
"88 700 LINE",
"88 199 LINE",
"99 130 LINE",
"132 79 LINE",
"180 44 LINE",
"260 28 LINE",
"341 44 LINE",
"389 79 LINE",
"422 130 LINE",
"432 199 LINE",
"432 700 LINE",
"481 700 LINE",
"481 195 LINE",
"468 114 LINE",
"425 45 LINE",
"360 -1 LINE"
);
},
{
closed = 1;
nodes = (
"189 763 LINE",
"208 763 LINE",
"224 774 LINE",
"230 793 LINE",
"224 811 LINE",
"208 823 LINE",
"189 823 LINE",
"174 811 LINE",
"168 793 LINE",
"174 774 LINE"
);
},
{
closed = 1;
nodes = (
"312 763 LINE",
"331 763 LINE",
"347 774 LINE",
"353 793 LINE",
"347 811 LINE",
"331 823 LINE",
"312 823 LINE",
"296 811 LINE",
"290 793 LINE",
"296 774 LINE"
);
}
);
width = 521;
}
);
unicode = 00DC;
},
{
glyphname = Ugrave;
lastChange = "2018-11-27 12:54:48 +0000";
layers = (
{
layerId = "FBE272FB-87FC-41E6-9500-16DB44470123";
paths = (
{
closed = 1;
nodes = (
"260 -21 LINE",
"160 -1 LINE",
"96 45 LINE",
"53 114 LINE",
"40 197 LINE",
"40 700 LINE",
"88 700 LINE",
"88 199 LINE",
"99 130 LINE",
"132 79 LINE",
"180 44 LINE",
"260 28 LINE",
"341 44 LINE",
"389 79 LINE",
"422 130 LINE",
"432 199 LINE",
"432 700 LINE",
"481 700 LINE",
"481 195 LINE",
"468 114 LINE",
"425 45 LINE",
"360 -1 LINE"
);
},
{
closed = 1;
nodes = (
"323 743 LINE",
"343 787 LINE",
"272 819 LINE",
"210 870 LINE",
"179 832 LINE",
"247 778 LINE"
);
}
);
width = 521;
}
);
unicode = 00D9;
},
{
glyphname = V;
lastChange = "2018-11-15 15:28:37 +0000";
layers = (
{
layerId = "FBE272FB-87FC-41E6-9500-16DB44470123";
paths = (
{
closed = 1;
nodes = (
"292 0 LINE",
"228 0 LINE",
"26 693 LINE",
"72 706 LINE",
"261 63 LINE",
"449 706 LINE",
"495 693 LINE"
);
}
);
width = 521;
}
);
unicode = 0056;
},
{
glyphname = W;
lastChange = "2018-11-15 15:30:03 +0000";
layers = (
{
layerId = "FBE272FB-87FC-41E6-9500-16DB44470123";
paths = (
{
closed = 1;
nodes = (
"393 0 LINE",
"341 0 LINE",
"261 391 LINE",
"180 0 LINE",
"127 0 LINE",
"25 697 LINE",
"72 704 LINE",
"157 124 LINE",
"237 512 LINE",
"286 512 LINE",
"363 125 LINE",
"448 704 LINE",
"496 697 LINE"
);
}
);
width = 521;
}
);
unicode = 0057;
},
{
glyphname = X;
lastChange = "2018-11-15 15:31:40 +0000";
layers = (
{
layerId = "FBE272FB-87FC-41E6-9500-16DB44470123";
paths = (
{
closed = 1;
nodes = (
"495 14 LINE",
"288 353 LINE",
"493 690 LINE",
"451 715 LINE",
"260 399 LINE",
"68 715 LINE",
"26 690 LINE",
"233 353 LINE",
"26 14 LINE",
"68 -11 LINE",
"260 306 LINE",
"454 -11 LINE"
);
}
);
width = 521;
}
);
unicode = 0058;
},
{
glyphname = Y;
lastChange = "2018-11-15 15:32:17 +0000";
layers = (
{
layerId = "FBE272FB-87FC-41E6-9500-16DB44470123";
paths = (
{
closed = 1;
nodes = (
"492 690 LINE",
"450 714 LINE",
"261 375 LINE",
"71 714 LINE",
"29 690 LINE",
"237 319 LINE",
"237 0 LINE",
"285 0 LINE",
"285 319 LINE"
);
}
);
width = 521;
}
);
unicode = 0059;
},
{
glyphname = Ydieresis;
lastChange = "2018-11-27 12:54:55 +0000";
layers = (
{
layerId = "FBE272FB-87FC-41E6-9500-16DB44470123";
paths = (
{
closed = 1;
nodes = (
"492 690 LINE",
"450 714 LINE",
"261 375 LINE",
"71 714 LINE",
"29 690 LINE",
"237 319 LINE",
"237 0 LINE",
"285 0 LINE",
"285 319 LINE"
);
},
{
closed = 1;
nodes = (
"189 763 LINE",
"208 763 LINE",
"224 774 LINE",
"230 793 LINE",
"224 811 LINE",
"208 823 LINE",
"189 823 LINE",
"174 811 LINE",
"168 793 LINE",
"174 774 LINE"
);
},
{
closed = 1;
nodes = (
"312 763 LINE",
"331 763 LINE",
"347 774 LINE",
"353 793 LINE",
"347 811 LINE",
"331 823 LINE",
"312 823 LINE",
"296 811 LINE",
"290 793 LINE",
"296 774 LINE"
);
}
);
width = 521;
}
);
unicode = 0178;
},
{
glyphname = Z;
lastChange = "2018-11-15 15:32:51 +0000";
layers = (
{
layerId = "FBE272FB-87FC-41E6-9500-16DB44470123";
paths = (
{
closed = 1;
nodes = (
"470 0 LINE",
"46 0 LINE",
"46 49 LINE",
"419 652 LINE",
"51 652 LINE",
"51 700 LINE",
"475 700 LINE",
"475 652 LINE",
"101 48 LINE",
"470 48 LINE"
);
}
);
width = 521;
}
);
unicode = 005A;
},
{
glyphname = a;
lastChange = "2018-11-14 22:09:30 +0000";
layers = (
{
guideLines = (
{
position = "{365, -14}";
}
);
layerId = "FBE272FB-87FC-41E6-9500-16DB44470123";
paths = (
{
closed = 1;
nodes = (
"451 106 LINE",
"451 377 LINE",
"422 449 LINE",
"352 502 LINE",
"268 518 LINE",
"203 512 LINE",
"148 494 LINE",
"94 455 LINE",
"65 408 LINE",
"105 383 LINE",
"129 422 LINE",
"169 450 LINE",
"213 464 LINE",
"266 471 LINE",
"332 457 LINE",
"382 420 LINE",
"403 368 LINE",
"403 333 LINE",
"326 305 LINE",
"241 295 LINE",
"184 295 LINE",
"123 279 LINE",
"67 238 LINE",
"41 180 LINE",
"41 117 LINE",
"61 56 LINE",
"113 7 LINE",
"174 -14 LINE",
"252 -19 LINE",
"353 5 LINE",
"412 60 LINE",
"418 37 LINE",
"444 -11 LINE",
"486 11 LINE",
"462 55 LINE"
);
},
{
closed = 1;
nodes = (
"247 25 LINE",
"189 31 LINE",
"138 49 LINE",
"102 81 LINE",
"88 124 LINE",
"88 170 LINE",
"105 207 LINE",
"144 235 LINE",
"191 247 LINE",
"242 247 LINE",
"337 258 LINE",
"403 282 LINE",
"403 114 LINE",
"330 49 LINE"
);
}
);
width = 521;
}
);
unicode = 0061;
},
{
glyphname = acircumflex;
lastChange = "2018-11-15 15:54:33 +0000";
layers = (
{
layerId = "FBE272FB-87FC-41E6-9500-16DB44470123";
paths = (
{
closed = 1;
nodes = (
"451 106 LINE",
"451 377 LINE",
"422 449 LINE",
"352 502 LINE",
"268 518 LINE",
"203 512 LINE",
"148 494 LINE",
"94 455 LINE",
"65 408 LINE",
"105 383 LINE",
"129 422 LINE",
"169 450 LINE",
"213 464 LINE",
"266 471 LINE",
"332 457 LINE",
"382 420 LINE",
"403 368 LINE",
"403 333 LINE",
"326 305 LINE",
"241 295 LINE",
"184 295 LINE",
"123 279 LINE",
"67 238 LINE",
"41 180 LINE",
"41 117 LINE",
"61 56 LINE",
"113 7 LINE",
"174 -14 LINE",
"252 -19 LINE",
"353 5 LINE",
"412 60 LINE",
"418 37 LINE",
"444 -11 LINE",
"486 11 LINE",
"462 55 LINE"
);
},
{
closed = 1;
nodes = (
"247 25 LINE",
"189 31 LINE",
"138 49 LINE",
"102 81 LINE",
"88 124 LINE",
"88 170 LINE",
"105 207 LINE",
"144 235 LINE",
"191 247 LINE",
"242 247 LINE",
"337 258 LINE",
"403 282 LINE",
"403 114 LINE",
"330 49 LINE"
);
},
{
closed = 1;
nodes = (
"260 637 LINE",
"340 569 LINE",
"371 605 LINE",
"277 687 LINE",
"244 687 LINE",
"150 605 LINE",
"180 569 LINE"
);
}
);
width = 521;
}
);
unicode = 00E2;
},
{
glyphname = adieresis;
lastChange = "2018-11-15 15:56:57 +0000";
layers = (
{
layerId = "FBE272FB-87FC-41E6-9500-16DB44470123";
paths = (
{
closed = 1;
nodes = (
"451 106 LINE",
"451 377 LINE",
"422 449 LINE",
"352 502 LINE",
"268 518 LINE",
"203 512 LINE",
"148 494 LINE",
"94 455 LINE",
"65 408 LINE",
"105 383 LINE",
"129 422 LINE",
"169 450 LINE",
"213 464 LINE",
"266 471 LINE",
"332 457 LINE",
"382 420 LINE",
"403 368 LINE",
"403 333 LINE",
"326 305 LINE",
"241 295 LINE",
"184 295 LINE",
"123 279 LINE",
"67 238 LINE",
"41 180 LINE",
"41 117 LINE",
"61 56 LINE",
"113 7 LINE",
"174 -14 LINE",
"252 -19 LINE",
"353 5 LINE",
"412 60 LINE",
"418 37 LINE",
"444 -11 LINE",
"486 11 LINE",
"462 55 LINE"
);
},
{
closed = 1;
nodes = (
"247 25 LINE",
"189 31 LINE",
"138 49 LINE",
"102 81 LINE",
"88 124 LINE",
"88 170 LINE",
"105 207 LINE",
"144 235 LINE",
"191 247 LINE",
"242 247 LINE",
"337 258 LINE",
"403 282 LINE",
"403 114 LINE",
"330 49 LINE"
);
},
{
closed = 1;
nodes = (
"186 582 LINE",
"205 582 LINE",
"221 593 LINE",
"227 612 LINE",
"221 630 LINE",
"205 642 LINE",
"186 642 LINE",
"171 630 LINE",
"165 612 LINE",
"171 593 LINE"
);
},
{
closed = 1;
nodes = (
"309 582 LINE",
"328 582 LINE",
"344 593 LINE",
"350 612 LINE",
"344 630 LINE",
"328 642 LINE",
"309 642 LINE",
"293 630 LINE",
"287 612 LINE",
"293 593 LINE"
);
}
);
width = 521;
}
);
unicode = 00E4;
},
{
glyphname = agrave;
lastChange = "2018-11-15 15:52:52 +0000";
layers = (
{
layerId = "FBE272FB-87FC-41E6-9500-16DB44470123";
paths = (
{
closed = 1;
nodes = (
"451 106 LINE",
"451 377 LINE",
"422 449 LINE",
"352 502 LINE",
"268 518 LINE",
"203 512 LINE",
"148 494 LINE",
"94 455 LINE",
"65 408 LINE",
"105 383 LINE",
"129 422 LINE",
"169 450 LINE",
"213 464 LINE",
"266 471 LINE",
"332 457 LINE",
"382 420 LINE",
"403 368 LINE",
"403 333 LINE",
"326 305 LINE",
"241 295 LINE",
"184 295 LINE",
"123 279 LINE",
"67 238 LINE",
"41 180 LINE",
"41 117 LINE",
"61 56 LINE",
"113 7 LINE",
"174 -14 LINE",
"252 -19 LINE",
"353 5 LINE",
"412 60 LINE",
"418 37 LINE",
"444 -11 LINE",
"486 11 LINE",
"462 55 LINE"
);
},
{
closed = 1;
nodes = (
"247 25 LINE",
"189 31 LINE",
"138 49 LINE",
"102 81 LINE",
"88 124 LINE",
"88 170 LINE",
"105 207 LINE",
"144 235 LINE",
"191 247 LINE",
"242 247 LINE",
"337 258 LINE",
"403 282 LINE",
"403 114 LINE",
"330 49 LINE"
);
},
{
closed = 1;
nodes = (
"333 579 LINE",
"349 624 LINE",
"276 650 LINE",
"210 696 LINE",
"182 656 LINE",
"254 607 LINE"
);
}
);
width = 521;
}
);
unicode = 00E0;
},
{
glyphname = b;
lastChange = "2018-11-15 15:39:10 +0000";
layers = (
{
layerId = "FBE272FB-87FC-41E6-9500-16DB44470123";
paths = (
{
closed = 1;
nodes = (
"433 448 LINE",
"376 504 LINE",
"305 528 LINE",
"234 528 LINE",
"162 501 LINE",
"123 463 LINE",
"123 700 LINE",
"75 700 LINE",
"75 111 LINE",
"61 58 LINE",
"32 13 LINE",
"73 -13 LINE",
"106 39 LINE",
"111 59 LINE",
"154 11 LINE",
"261 -25 LINE",
"338 -13 LINE",
"409 34 LINE",
"457 98 LINE",
"484 192 LINE",
"484 284 LINE",
"469 373 LINE"
);
},
{
closed = 1;
nodes = (
"413 120 LINE",
"375 69 LINE",
"320 33 LINE",
"265 25 LINE",
"181 53 LINE",
"123 117 LINE",
"123 371 LINE",
"153 424 LINE",
"189 460 LINE",
"243 481 LINE",
"297 481 LINE",
"350 463 LINE",
"393 420 LINE",
"422 359 LINE",
"436 282 LINE",
"436 198 LINE"
);
}
);
width = 521;
}
);
unicode = 0062;
},
{
glyphname = c;
lastChange = "2018-11-15 15:58:39 +0000";
layers = (
{
layerId = "FBE272FB-87FC-41E6-9500-16DB44470123";
paths = (
{
closed = 1;
nodes = (
"267 -23 LINE",
"181 -5 LINE",
"109 48 LINE",
"63 123 LINE",
"42 206 LINE",
"42 288 LINE",
"62 368 LINE",
"99 432 LINE",
"158 489 LINE",
"232 518 LINE",
"298 518 LINE",
"370 498 LINE",
"422 464 LINE",
"463 415 LINE",
"427 385 LINE",
"390 428 LINE",
"350 455 LINE",
"292 470 LINE",
"240 470 LINE",
"184 449 LINE",
"137 403 LINE",
"107 350 LINE",
"90 282 LINE",
"90 212 LINE",
"107 141 LINE",
"144 81 LINE",
"201 39 LINE",
"268 25 LINE",
"333 35 LINE",
"392 67 LINE",
"448 123 LINE",
"481 90 LINE",
"421 29 LINE",
"349 -11 LINE"
);
}
);
width = 521;
}
);
unicode = 0063;
},
{
glyphname = ccedilla;
lastChange = "2018-11-15 16:01:17 +0000";
layers = (
{
layerId = "FBE272FB-87FC-41E6-9500-16DB44470123";
paths = (
{
closed = 1;
nodes = (
"348 -11 LINE",
"421 30 LINE",
"481 90 LINE",
"447 124 LINE",
"392 68 LINE",
"333 35 LINE",
"269 24 LINE",
"202 39 LINE",
"144 81 LINE",
"107 142 LINE",
"90 212 LINE",
"90 281 LINE",
"107 350 LINE",
"137 403 LINE",
"184 448 LINE",
"241 470 LINE",
"292 470 LINE",
"350 454 LINE",
"390 428 LINE",
"427 384 LINE",
"463 415 LINE",
"422 464 LINE",
"369 498 LINE",
"298 517 LINE",
"232 517 LINE",
"158 489 LINE",
"100 432 LINE",
"62 367 LINE",
"42 287 LINE",
"42 206 LINE",
"63 123 LINE",
"108 49 LINE",
"182 -4 LINE",
"243 -18 LINE",
"243 -67 LINE",
"291 -90 LINE",
"304 -110 LINE",
"290 -135 LINE",
"259 -145 LINE",
"211 -128 LINE",
"196 -172 LINE",
"259 -196 LINE",
"323 -173 LINE",
"356 -108 LINE",
"323 -52 LINE",
"290 -37 LINE",
"290 -20 LINE"
);
}
);
width = 521;
}
);
unicode = 00E7;
},
{
glyphname = d;
lastChange = "2018-11-15 16:27:45 +0000";
layers = (
{
layerId = "FBE272FB-87FC-41E6-9500-16DB44470123";
paths = (
{
closed = 1;
nodes = (
"445 113 LINE",
"445 699 LINE",
"397 699 LINE",
"397 462 LINE",
"367 495 LINE",
"287 527 LINE",
"212 528 LINE",
"150 500 LINE",
"93 447 LINE",
"55 377 LINE",
"36 291 LINE",
"36 201 LINE",
"53 120 LINE",
"93 48 LINE",
"157 -5 LINE",
"235 -22 LINE",
"312 -11 LINE",
"375 21 LINE",
"408 60 LINE",
"413 41 LINE",
"446 -11 LINE",
"487 15 LINE",
"458 60 LINE"
);
},
{
closed = 1;
nodes = (
"297 36 LINE",
"237 27 LINE",
"179 40 LINE",
"131 78 LINE",
"99 137 LINE",
"83 206 LINE",
"83 285 LINE",
"101 359 LINE",
"132 418 LINE",
"177 459 LINE",
"222 479 LINE",
"274 479 LINE",
"344 453 LINE",
"397 388 LINE",
"397 141 LINE",
"380 99 LINE",
"344 60 LINE"
);
}
);
width = 521;
}
);
unicode = 0064;
},
{
glyphname = e;
lastChange = "2018-11-15 16:05:15 +0000";
layers = (
{
layerId = "FBE272FB-87FC-41E6-9500-16DB44470123";
paths = (
{
closed = 1;
nodes = (
"172 -7 LINE",
"105 44 LINE",
"58 116 LINE",
"39 208 LINE",
"39 291 LINE",
"56 365 LINE",
"95 437 LINE",
"154 490 LINE",
"226 519 LINE",
"298 519 LINE",
"362 497 LINE",
"421 451 LINE",
"460 388 LINE",
"477 312 LINE",
"477 225 LINE",
"87 225 LINE",
"87 212 LINE",
"103 134 LINE",
"140 76 LINE",
"192 38 LINE",
"264 24 LINE",
"334 35 LINE",
"385 61 LINE",
"431 107 LINE",
"465 73 LINE",
"413 22 LINE",
"349 -10 LINE",
"264 -25 LINE"
);
},
{
closed = 1;
nodes = (
"430 273 LINE",
"430 307 LINE",
"416 370 LINE",
"385 418 LINE",
"339 454 LINE",
"290 471 LINE",
"235 471 LINE",
"179 449 LINE",
"133 407 LINE",
"101 348 LINE",
"87 285 LINE",
"87 273 LINE"
);
}
);
width = 521;
}
);
unicode = 0065;
},
{
glyphname = eacute;
lastChange = "2018-11-17 00:27:02 +0000";
layers = (
{
layerId = "FBE272FB-87FC-41E6-9500-16DB44470123";
paths = (
{
closed = 1;
nodes = (
"172 -7 LINE",
"105 44 LINE",
"58 116 LINE",
"39 208 LINE",
"39 291 LINE",
"56 365 LINE",
"95 437 LINE",
"154 490 LINE",
"226 519 LINE",
"298 519 LINE",
"362 497 LINE",
"421 451 LINE",
"460 388 LINE",
"477 312 LINE",
"477 225 LINE",
"87 225 LINE",
"87 212 LINE",
"103 134 LINE",
"140 76 LINE",
"192 38 LINE",
"264 24 LINE",
"334 35 LINE",
"385 61 LINE",
"431 107 LINE",
"465 73 LINE",
"413 22 LINE",
"349 -10 LINE",
"264 -25 LINE"
);
},
{
closed = 1;
nodes = (
"430 273 LINE",
"430 307 LINE",
"416 370 LINE",
"385 418 LINE",
"339 454 LINE",
"290 471 LINE",
"235 471 LINE",
"179 449 LINE",
"133 407 LINE",
"101 348 LINE",
"87 285 LINE",
"87 273 LINE"
);
},
{
closed = 1;
nodes = (
"264 626 LINE",
"333 677 LINE",
"305 715 LINE",
"241 667 LINE",
"165 637 LINE",
"184 592 LINE"
);
}
);
width = 521;
}
);
unicode = 00E9;
},
{
glyphname = ecircumflex;
lastChange = "2018-11-15 16:14:50 +0000";
layers = (
{
layerId = "FBE272FB-87FC-41E6-9500-16DB44470123";
paths = (
{
closed = 1;
nodes = (
"172 -7 LINE",
"105 44 LINE",
"58 116 LINE",
"39 208 LINE",
"39 291 LINE",
"56 365 LINE",
"95 437 LINE",
"154 490 LINE",
"226 519 LINE",
"298 519 LINE",
"362 497 LINE",
"421 451 LINE",
"460 388 LINE",
"477 312 LINE",
"477 225 LINE",
"87 225 LINE",
"87 212 LINE",
"103 134 LINE",
"140 76 LINE",
"192 38 LINE",
"264 24 LINE",
"334 35 LINE",
"385 61 LINE",
"431 107 LINE",
"465 73 LINE",
"413 22 LINE",
"349 -10 LINE",
"264 -25 LINE"
);
},
{
closed = 1;
nodes = (
"430 273 LINE",
"430 307 LINE",
"416 370 LINE",
"385 418 LINE",
"339 454 LINE",
"290 471 LINE",
"235 471 LINE",
"179 449 LINE",
"133 407 LINE",
"101 348 LINE",
"87 285 LINE",
"87 273 LINE"
);
},
{
closed = 1;
nodes = (
"263 643 LINE",
"342 574 LINE",
"373 610 LINE",
"280 692 LINE",
"246 692 LINE",
"154 610 LINE",
"186 574 LINE"
);
}
);
width = 521;
}
);
unicode = 00EA;
},
{
glyphname = edieresis;
lastChange = "2018-11-15 16:15:29 +0000";
layers = (
{
layerId = "FBE272FB-87FC-41E6-9500-16DB44470123";
paths = (
{
closed = 1;
nodes = (
"172 -7 LINE",
"105 44 LINE",
"58 116 LINE",
"39 208 LINE",
"39 291 LINE",
"56 365 LINE",
"95 437 LINE",
"154 490 LINE",
"226 519 LINE",
"298 519 LINE",
"362 497 LINE",
"421 451 LINE",
"460 388 LINE",
"477 312 LINE",
"477 225 LINE",
"87 225 LINE",
"87 212 LINE",
"103 134 LINE",
"140 76 LINE",
"192 38 LINE",
"264 24 LINE",
"334 35 LINE",
"385 61 LINE",
"431 107 LINE",
"465 73 LINE",
"413 22 LINE",
"349 -10 LINE",
"264 -25 LINE"
);
},
{
closed = 1;
nodes = (
"430 273 LINE",
"430 307 LINE",
"416 370 LINE",
"385 418 LINE",
"339 454 LINE",
"290 471 LINE",
"235 471 LINE",
"179 449 LINE",
"133 407 LINE",
"101 348 LINE",
"87 285 LINE",
"87 273 LINE"
);
},
{
closed = 1;
nodes = (
"193 598 LINE",
"212 598 LINE",
"227 609 LINE",
"233 627 LINE",
"227 646 LINE",
"212 657 LINE",
"193 657 LINE",
"178 646 LINE",
"172 627 LINE",
"178 609 LINE"
);
},
{
closed = 1;
nodes = (
"315 598 LINE",
"334 598 LINE",
"350 609 LINE",
"355 627 LINE",
"350 646 LINE",
"334 657 LINE",
"315 657 LINE",
"300 646 LINE",
"294 627 LINE",
"300 609 LINE"
);
}
);
width = 521;
}
);
unicode = 00EB;
},
{
glyphname = egrave;
lastChange = "2018-11-17 00:26:37 +0000";
layers = (
{
layerId = "FBE272FB-87FC-41E6-9500-16DB44470123";
paths = (
{
closed = 1;
nodes = (
"172 -7 LINE",
"105 44 LINE",
"58 116 LINE",
"39 208 LINE",
"39 291 LINE",
"56 365 LINE",
"95 437 LINE",
"154 490 LINE",
"226 519 LINE",
"298 519 LINE",
"362 497 LINE",
"421 451 LINE",
"460 388 LINE",
"477 312 LINE",
"477 225 LINE",
"87 225 LINE",
"87 212 LINE",
"103 134 LINE",
"140 76 LINE",
"192 38 LINE",
"264 24 LINE",
"334 35 LINE",
"385 61 LINE",
"431 107 LINE",
"465 73 LINE",
"413 22 LINE",
"349 -10 LINE",
"264 -25 LINE"
);
},
{
closed = 1;
nodes = (
"430 273 LINE",
"430 307 LINE",
"416 370 LINE",
"385 418 LINE",
"339 454 LINE",
"290 471 LINE",
"235 471 LINE",
"179 449 LINE",
"133 407 LINE",
"101 348 LINE",
"87 285 LINE",
"87 273 LINE"
);
},
{
closed = 1;
nodes = (
"323 588 LINE",
"343 632 LINE",
"272 664 LINE",
"210 715 LINE",
"179 677 LINE",
"247 623 LINE"
);
}
);
width = 521;
}
);
unicode = 00E8;
},
{
glyphname = f;
lastChange = "2018-11-15 16:18:50 +0000";
layers = (
{
layerId = "FBE272FB-87FC-41E6-9500-16DB44470123";
paths = (
{
closed = 1;
nodes = (
"454 634 LINE",
"394 667 LINE",
"328 679 LINE",
"236 648 LINE",
"176 563 LINE",
"167 500 LINE",
"167 426 LINE",
"45 426 LINE",
"45 378 LINE",
"167 378 LINE",
"167 0 LINE",
"215 0 LINE",
"215 378 LINE",
"356 378 LINE",
"356 426 LINE",
"215 426 LINE",
"215 495 LINE",
"222 544 LINE",
"266 607 LINE",
"331 630 LINE",
"377 621 LINE",
"421 597 LINE",
"457 548 LINE",
"496 576 LINE"
);
}
);
width = 521;
}
);
unicode = 0066;
},
{
glyphname = g;
lastChange = "2018-11-15 16:27:12 +0000";
layers = (
{
layerId = "FBE272FB-87FC-41E6-9500-16DB44470123";
paths = (
{
closed = 1;
nodes = (
"401 490 LINE",
"405 438 LINE",
"400 438 LINE",
"393 466 LINE",
"367 492 LINE",
"289 523 LINE",
"230 523 LINE",
"169 502 LINE",
"106 448 LINE",
"59 367 LINE",
"40 285 LINE",
"40 204 LINE",
"64 117 LINE",
"121 38 LINE",
"191 -8 LINE",
"273 -20 LINE",
"367 10 LINE",
"401 51 LINE",
"401 -21 LINE",
"384 -83 LINE",
"341 -142 LINE",
"293 -168 LINE",
"235 -171 LINE",
"180 -156 LINE",
"145 -130 LINE",
"118 -84 LINE",
"74 -107 LINE",
"105 -160 LINE",
"158 -201 LINE",
"230 -219 LINE",
"304 -216 LINE",
"374 -179 LINE",
"426 -104 LINE",
"448 -27 LINE",
"448 463 LINE",
"480 484 LINE",
"455 524 LINE"
);
},
{
closed = 1;
nodes = (
"266 30 LINE",
"208 39 LINE",
"155 73 LINE",
"109 137 LINE",
"88 210 LINE",
"88 280 LINE",
"105 349 LINE",
"143 417 LINE",
"193 458 LINE",
"238 475 LINE",
"280 475 LINE",
"339 451 LINE",
"372 419 LINE",
"400 364 LINE",
"400 124 LINE",
"343 54 LINE"
);
}
);
width = 521;
}
);
unicode = 0067;
},
{
glyphname = h;
lastChange = "2018-11-15 16:23:58 +0000";
layers = (
{
layerId = "FBE272FB-87FC-41E6-9500-16DB44470123";
paths = (
{
closed = 1;
nodes = (
"466 412 LINE",
"435 475 LINE",
"386 515 LINE",
"329 530 LINE",
"268 530 LINE",
"158 487 LINE",
"115 433 LINE",
"115 700 LINE",
"67 700 LINE",
"67 95 LINE",
"58 51 LINE",
"30 14 LINE",
"68 -14 LINE",
"101 30 LINE",
"115 90 LINE",
"115 355 LINE",
"187 448 LINE",
"277 482 LINE",
"323 482 LINE",
"363 471 LINE",
"396 445 LINE",
"420 397 LINE",
"428 347 LINE",
"428 0 LINE",
"475 0 LINE",
"475 348 LINE"
);
}
);
width = 521;
}
);
unicode = 0068;
},
{
glyphname = i;
lastChange = "2018-11-16 23:55:33 +0000";
layers = (
{
layerId = "FBE272FB-87FC-41E6-9500-16DB44470123";
paths = (
{
closed = 1;
nodes = (
"248 692 LINE",
"227 692 LINE",
"209 680 LINE",
"202 658 LINE",
"209 638 LINE",
"227 624 LINE",
"248 624 LINE",
"268 638 LINE",
"274 658 LINE",
"268 680 LINE"
);
},
{
closed = 1;
nodes = (
"351 -26 LINE",
"255 12 LINE",
"215 117 LINE",
"215 453 LINE",
"42 453 LINE",
"42 500 LINE",
"263 500 LINE",
"263 126 LINE",
"292 49 LINE",
"355 23 LINE",
"410 36 LINE",
"457 76 LINE",
"488 39 LINE",
"432 -9 LINE"
);
}
);
width = 521;
}
);
unicode = 0069;
},
{
glyphname = icircumflex;
lastChange = "2018-11-16 23:58:41 +0000";
layers = (
{
layerId = "FBE272FB-87FC-41E6-9500-16DB44470123";
paths = (
{
closed = 1;
nodes = (
"351 -26 LINE",
"255 12 LINE",
"215 117 LINE",
"215 453 LINE",
"42 453 LINE",
"42 500 LINE",
"263 500 LINE",
"263 126 LINE",
"292 49 LINE",
"355 23 LINE",
"410 36 LINE",
"457 76 LINE",
"488 39 LINE",
"432 -9 LINE"
);
},
{
closed = 1;
nodes = (
"242 648 LINE",
"321 579 LINE",
"352 615 LINE",
"259 697 LINE",
"225 697 LINE",
"133 615 LINE",
"165 579 LINE"
);
}
);
width = 521;
}
);
unicode = 00EE;
},
{
glyphname = idieresis;
lastChange = "2018-11-17 00:00:21 +0000";
layers = (
{
layerId = "FBE272FB-87FC-41E6-9500-16DB44470123";
paths = (
{
closed = 1;
nodes = (
"351 -26 LINE",
"255 12 LINE",
"215 117 LINE",
"215 453 LINE",
"42 453 LINE",
"42 500 LINE",
"263 500 LINE",
"263 126 LINE",
"292 49 LINE",
"355 23 LINE",
"410 36 LINE",
"457 76 LINE",
"488 39 LINE",
"432 -9 LINE"
);
},
{
closed = 1;
nodes = (
"172 607 LINE",
"191 607 LINE",
"206 618 LINE",
"212 636 LINE",
"206 655 LINE",
"191 666 LINE",
"172 666 LINE",
"157 655 LINE",
"151 636 LINE",
"157 618 LINE"
);
},
{
closed = 1;
nodes = (
"294 607 LINE",
"313 607 LINE",
"329 618 LINE",
"334 636 LINE",
"329 655 LINE",
"313 666 LINE",
"294 666 LINE",
"279 655 LINE",
"273 636 LINE",
"279 618 LINE"
);
}
);
width = 521;
}
);
unicode = 00EF;
},
{
glyphname = igrave;
lastChange = "2018-11-16 23:56:40 +0000";
layers = (
{
layerId = "FBE272FB-87FC-41E6-9500-16DB44470123";
paths = (
{
closed = 1;
nodes = (
"351 -26 LINE",
"255 12 LINE",
"215 117 LINE",
"215 453 LINE",
"42 453 LINE",
"42 500 LINE",
"263 500 LINE",
"263 126 LINE",
"292 49 LINE",
"355 23 LINE",
"410 36 LINE",
"457 76 LINE",
"488 39 LINE",
"432 -9 LINE"
);
},
{
closed = 1;
nodes = (
"212 720 LINE",
"266 633 LINE",
"235 612 LINE",
"171 692 LINE"
);
}
);
width = 521;
}
);
unicode = 00EC;
},
{
glyphname = j;
lastChange = "2018-11-17 00:03:57 +0000";
layers = (
{
layerId = "FBE272FB-87FC-41E6-9500-16DB44470123";
paths = (
{
closed = 1;
nodes = (
"294 680 LINE",
"272 680 LINE",
"253 667 LINE",
"247 645 LINE",
"253 625 LINE",
"272 611 LINE",
"294 611 LINE",
"313 625 LINE",
"320 645 LINE",
"313 667 LINE"
);
},
{
closed = 1;
nodes = (
"144 -235 LINE",
"75 -212 LINE",
"29 -159 LINE",
"64 -127 LINE",
"102 -170 LINE",
"147 -185 LINE",
"195 -174 LINE",
"239 -127 LINE",
"258 -40 LINE",
"258 500 LINE",
"475 500 LINE",
"475 452 LINE",
"306 452 LINE",
"306 -46 LINE",
"283 -152 LINE",
"218 -218 LINE"
);
}
);
width = 521;
}
);
unicode = 006A;
},
{
glyphname = k;
lastChange = "2018-11-17 00:07:04 +0000";
layers = (
{
layerId = "FBE272FB-87FC-41E6-9500-16DB44470123";
paths = (
{
closed = 1;
nodes = (
"453 -15 LINE",
"493 14 LINE",
"277 307 LINE",
"483 480 LINE",
"451 518 LINE",
"132 249 LINE",
"132 700 LINE",
"84 700 LINE",
"84 111 LINE",
"68 61 LINE",
"28 15 LINE",
"65 -17 LINE",
"111 37 LINE",
"132 104 LINE",
"132 185 LINE",
"240 277 LINE"
);
}
);
width = 521;
}
);
unicode = 006B;
},
{
glyphname = l;
lastChange = "2018-11-17 00:08:57 +0000";
layers = (
{
layerId = "FBE272FB-87FC-41E6-9500-16DB44470123";
paths = (
{
closed = 1;
nodes = (
"351 -27 LINE",
"258 11 LINE",
"219 117 LINE",
"219 652 LINE",
"48 652 LINE",
"48 700 LINE",
"267 700 LINE",
"267 125 LINE",
"296 47 LINE",
"355 22 LINE",
"410 34 LINE",
"457 74 LINE",
"488 38 LINE",
"432 -10 LINE"
);
}
);
width = 521;
}
);
unicode = 006C;
},
{
glyphname = m;
lastChange = "2018-11-17 00:20:40 +0000";
layers = (
{
guideLines = (
{
angle = 180;
position = "{25, 405}";
}
);
hints = (
{
horizontal = 1;
place = "{410, 48}";
type = Stem;
}
);
layerId = "FBE272FB-87FC-41E6-9500-16DB44470123";
paths = (
{
closed = 1;
nodes = (
"460 491 LINE",
"414 519 LINE",
"363 519 LINE",
"314 486 LINE",
"293 446 LINE",
"284 405 LINE",
"282 405 LINE",
"282 448 LINE",
"259 491 LINE",
"213 519 LINE",
"163 519 LINE",
"116 490 LINE",
"96 455 LINE",
"82 405 LINE",
"80 405 LINE",
"84 454 LINE",
"84 500 LINE",
"37 500 LINE",
"37 0 LINE",
"84 0 LINE",
"84 305 LINE",
"114 401 LINE",
"149 455 LINE",
"177 472 LINE",
"199 472 LINE",
"224 458 LINE",
"238 436 LINE",
"238 0 LINE",
"285 0 LINE",
"285 305 LINE",
"319 401 LINE",
"352 457 LINE",
"378 472 LINE",
"400 472 LINE",
"424 458 LINE",
"437 436 LINE",
"437 0 LINE",
"484 0 LINE",
"484 448 LINE"
);
}
);
width = 521;
}
);
unicode = 006D;
},
{
glyphname = n;
lastChange = "2018-11-17 00:23:21 +0000";
layers = (
{
layerId = "FBE272FB-87FC-41E6-9500-16DB44470123";
paths = (
{
closed = 1;
nodes = (
"466 410 LINE",
"420 475 LINE",
"350 513 LINE",
"264 524 LINE",
"154 483 LINE",
"111 430 LINE",
"111 459 LINE",
"62 516 LINE",
"25 484 LINE",
"63 441 LINE",
"63 -1 LINE",
"111 -1 LINE",
"111 354 LINE",
"184 442 LINE",
"270 474 LINE",
"335 466 LINE",
"388 438 LINE",
"419 392 LINE",
"428 328 LINE",
"428 0 LINE",
"476 0 LINE",
"476 330 LINE"
);
}
);
width = 521;
}
);
unicode = 006E;
},
{
glyphname = o;
lastChange = "2018-11-25 21:22:28 +0000";
layers = (
{
layerId = "FBE272FB-87FC-41E6-9500-16DB44470123";
paths = (
{
closed = 1;
nodes = (
"174 -7 LINE",
"105 47 LINE",
"62 124 LINE",
"43 216 LINE",
"43 280 LINE",
"67 387 LINE",
"112 457 LINE",
"177 509 LINE",
"261 526 LINE",
"344 509 LINE",
"409 457 LINE",
"454 387 LINE",
"478 280 LINE",
"478 216 LINE",
"459 124 LINE",
"416 47 LINE",
"347 -7 LINE",
"261 -26 LINE"
);
},
{
closed = 1;
nodes = (
"261 24 LINE",
"327 38 LINE",
"379 78 LINE",
"413 141 LINE",
"430 218 LINE",
"430 278 LINE",
"409 368 LINE",
"373 424 LINE",
"323 464 LINE",
"261 476 LINE",
"198 464 LINE",
"148 424 LINE",
"112 368 LINE",
"91 278 LINE",
"91 218 LINE",
"108 141 LINE",
"142 78 LINE",
"195 38 LINE"
);
}
);
width = 521;
}
);
unicode = 006F;
},
{
glyphname = ocircumflex;
lastChange = "2018-11-17 00:34:40 +0000";
layers = (
{
layerId = "FBE272FB-87FC-41E6-9500-16DB44470123";
paths = (
{
closed = 1;
nodes = (
"174 -7 LINE",
"105 47 LINE",
"62 124 LINE",
"43 216 LINE",
"43 280 LINE",
"67 387 LINE",
"112 457 LINE",
"177 509 LINE",
"261 526 LINE",
"344 509 LINE",
"409 457 LINE",
"454 387 LINE",
"478 280 LINE",
"478 216 LINE",
"459 124 LINE",
"416 47 LINE",
"347 -7 LINE",
"261 -26 LINE"
);
},
{
closed = 1;
nodes = (
"261 24 LINE",
"327 38 LINE",
"379 78 LINE",
"413 141 LINE",
"430 218 LINE",
"430 278 LINE",
"409 368 LINE",
"373 424 LINE",
"323 464 LINE",
"261 476 LINE",
"198 464 LINE",
"148 424 LINE",
"112 368 LINE",
"91 278 LINE",
"91 218 LINE",
"108 141 LINE",
"142 78 LINE",
"195 38 LINE"
);
},
{
closed = 1;
nodes = (
"261 639 LINE",
"341 571 LINE",
"372 607 LINE",
"278 689 LINE",
"245 689 LINE",
"151 607 LINE",
"181 571 LINE"
);
}
);
width = 521;
}
);
unicode = 00F4;
},
{
glyphname = odieresis;
lastChange = "2018-11-17 00:41:18 +0000";
layers = (
{
layerId = "FBE272FB-87FC-41E6-9500-16DB44470123";
paths = (
{
closed = 1;
nodes = (
"174 -7 LINE",
"105 47 LINE",
"62 124 LINE",
"43 216 LINE",
"43 280 LINE",
"67 387 LINE",
"112 457 LINE",
"177 509 LINE",
"261 526 LINE",
"344 509 LINE",
"409 457 LINE",
"454 387 LINE",
"478 280 LINE",
"478 216 LINE",
"459 124 LINE",
"416 47 LINE",
"347 -7 LINE",
"261 -26 LINE"
);
},
{
closed = 1;
nodes = (
"261 24 LINE",
"327 38 LINE",
"379 78 LINE",
"413 141 LINE",
"430 218 LINE",
"430 278 LINE",
"409 368 LINE",
"373 424 LINE",
"323 464 LINE",
"261 476 LINE",
"198 464 LINE",
"148 424 LINE",
"112 368 LINE",
"91 278 LINE",
"91 218 LINE",
"108 141 LINE",
"142 78 LINE",
"195 38 LINE"
);
},
{
closed = 1;
nodes = (
"192 605 LINE",
"211 605 LINE",
"226 616 LINE",
"232 634 LINE",
"226 653 LINE",
"211 664 LINE",
"192 664 LINE",
"177 653 LINE",
"171 634 LINE",
"177 616 LINE"
);
},
{
closed = 1;
nodes = (
"314 605 LINE",
"333 605 LINE",
"349 616 LINE",
"354 634 LINE",
"349 653 LINE",
"333 664 LINE",
"314 664 LINE",
"299 653 LINE",
"293 634 LINE",
"299 616 LINE"
);
}
);
width = 521;
}
);
unicode = 00F6;
},
{
glyphname = oe;
lastChange = "2018-11-17 00:39:00 +0000";
layers = (
{
layerId = "FBE272FB-87FC-41E6-9500-16DB44470123";
paths = (
{
closed = 1;
nodes = (
"496 313 LINE",
"490 395 LINE",
"472 459 LINE",
"431 510 LINE",
"366 529 LINE",
"300 503 LINE",
"265 459 LINE",
"262 469 LINE",
"219 513 LINE",
"159 530 LINE",
"102 510 LINE",
"59 462 LINE",
"38 402 LINE",
"27 336 LINE",
"23 250 LINE",
"27 170 LINE",
"35 108 LINE",
"60 42 LINE",
"103 -10 LINE",
"164 -29 LINE",
"223 -12 LINE",
"264 37 LINE",
"309 -8 LINE",
"373 -29 LINE",
"439 -6 LINE",
"483 40 LINE",
"447 74 LINE",
"411 36 LINE",
"372 23 LINE",
"335 34 LINE",
"302 67 LINE",
"287 132 LINE",
"287 217 LINE",
"496 217 LINE"
);
},
{
closed = 1;
nodes = (
"299 426 LINE",
"329 462 LINE",
"368 477 LINE",
"403 467 LINE",
"427 436 LINE",
"442 386 LINE",
"447 312 LINE",
"447 265 LINE",
"288 265 LINE",
"288 364 LINE"
);
},
{
closed = 1;
nodes = (
"196 30 LINE",
"165 22 LINE",
"132 31 LINE",
"102 67 LINE",
"82 120 LINE",
"76 173 LINE",
"72 250 LINE",
"76 330 LINE",
"84 388 LINE",
"101 438 LINE",
"129 467 LINE",
"161 478 LINE",
"193 469 LINE",
"218 445 LINE",
"239 362 LINE",
"239 132 LINE",
"220 60 LINE"
);
}
);
width = 521;
}
);
unicode = 0153;
},
{
glyphname = p;
lastChange = "2018-11-17 00:45:11 +0000";
layers = (
{
layerId = "FBE272FB-87FC-41E6-9500-16DB44470123";
paths = (
{
closed = 1;
nodes = (
"413 458 LINE",
"337 509 LINE",
"251 523 LINE",
"150 487 LINE",
"113 448 LINE",
"113 458 LINE",
"67 510 LINE",
"30 479 LINE",
"65 441 LINE",
"65 -200 LINE",
"113 -200 LINE",
"113 37 LINE",
"143 7 LINE",
"233 -25 LINE",
"321 -12 LINE",
"400 31 LINE",
"457 103 LINE",
"485 198 LINE",
"485 277 LINE",
"465 374 LINE"
);
},
{
closed = 1;
nodes = (
"414 125 LINE",
"368 68 LINE",
"306 35 LINE",
"238 23 LINE",
"170 48 LINE",
"113 103 LINE",
"113 375 LINE",
"177 446 LINE",
"255 473 LINE",
"318 463 LINE",
"378 424 LINE",
"420 355 LINE",
"437 271 LINE",
"437 205 LINE"
);
}
);
width = 521;
}
);
unicode = 0070;
},
{
glyphname = q;
lastChange = "2018-11-17 00:47:25 +0000";
layers = (
{
layerId = "FBE272FB-87FC-41E6-9500-16DB44470123";
paths = (
{
closed = 1;
nodes = (
"455 513 LINE",
"409 457 LINE",
"374 492 LINE",
"295 523 LINE",
"237 523 LINE",
"168 501 LINE",
"90 427 LINE",
"52 348 LINE",
"39 234 LINE",
"58 130 LINE",
"110 41 LINE",
"189 -14 LINE",
"283 -29 LINE",
"382 20 LINE",
"409 54 LINE",
"409 -200 LINE",
"457 -200 LINE",
"457 440 LINE",
"493 483 LINE"
);
},
{
closed = 1;
nodes = (
"276 21 LINE",
"207 32 LINE",
"146 74 LINE",
"103 146 LINE",
"88 236 LINE",
"99 335 LINE",
"130 398 LINE",
"194 458 LINE",
"245 474 LINE",
"286 474 LINE",
"347 450 LINE",
"380 418 LINE",
"409 366 LINE",
"409 134 LINE",
"351 58 LINE"
);
}
);
width = 521;
}
);
unicode = 0071;
},
{
glyphname = r;
lastChange = "2018-11-17 00:52:21 +0000";
layers = (
{
layerId = "FBE272FB-87FC-41E6-9500-16DB44470123";
paths = (
{
closed = 1;
nodes = (
"460 460 LINE",
"402 508 LINE",
"332 525 LINE",
"258 523 LINE",
"159 461 LINE",
"139 428 LINE",
"125 389 LINE",
"123 389 LINE",
"131 430 LINE",
"131 477 LINE",
"59 522 LINE",
"34 482 LINE",
"83 450 LINE",
"83 0 LINE",
"131 0 LINE",
"131 327 LINE",
"193 426 LINE",
"272 476 LINE",
"326 478 LINE",
"380 464 LINE",
"421 431 LINE",
"443 377 LINE",
"486 394 LINE"
);
}
);
width = 521;
}
);
unicode = 0072;
},
{
glyphname = s;
lastChange = "2018-11-17 00:53:54 +0000";
layers = (
{
layerId = "FBE272FB-87FC-41E6-9500-16DB44470123";
paths = (
{
closed = 1;
nodes = (
"252 -24 LINE",
"165 -13 LINE",
"87 28 LINE",
"35 92 LINE",
"72 122 LINE",
"118 66 LINE",
"180 34 LINE",
"254 24 LINE",
"333 31 LINE",
"395 59 LINE",
"426 96 LINE",
"436 138 LINE",
"422 178 LINE",
"393 208 LINE",
"337 226 LINE",
"180 243 LINE",
"118 264 LINE",
"69 312 LINE",
"52 376 LINE",
"73 446 LINE",
"122 487 LINE",
"186 517 LINE",
"276 525 LINE",
"363 512 LINE",
"427 482 LINE",
"477 433 LINE",
"444 399 LINE",
"399 442 LINE",
"349 465 LINE",
"274 476 LINE",
"198 470 LINE",
"148 446 LINE",
"115 418 LINE",
"102 375 LINE",
"112 337 LINE",
"144 306 LINE",
"191 290 LINE",
"349 272 LINE",
"419 250 LINE",
"464 204 LINE",
"486 141 LINE",
"470 74 LINE",
"425 20 LINE",
"346 -17 LINE"
);
}
);
width = 521;
}
);
unicode = 0073;
},
{
glyphname = t;
lastChange = "2018-11-17 00:57:30 +0000";
layers = (
{
layerId = "FBE272FB-87FC-41E6-9500-16DB44470123";
paths = (
{
closed = 1;
nodes = (
"416 107 LINE",
"376 65 LINE",
"336 35 LINE",
"280 24 LINE",
"229 35 LINE",
"179 73 LINE",
"152 156 LINE",
"152 486 LINE",
"310 486 LINE",
"310 534 LINE",
"152 534 LINE",
"152 660 LINE",
"104 660 LINE",
"104 534 LINE",
"0 534 LINE",
"0 486 LINE",
"104 486 LINE",
"104 149 LINE",
"137 43 LINE",
"209 -11 LINE",
"280 -26 LINE",
"356 -10 LINE",
"406 27 LINE",
"451 73 LINE"
);
}
);
width = 421;
}
);
unicode = 0074;
},
{
glyphname = u;
lastChange = "2018-11-17 00:59:02 +0000";
layers = (
{
layerId = "FBE272FB-87FC-41E6-9500-16DB44470123";
paths = (
{
closed = 1;
nodes = (
"460 51 LINE",
"448 113 LINE",
"448 500 LINE",
"401 500 LINE",
"401 120 LINE",
"331 42 LINE",
"245 22 LINE",
"185 32 LINE",
"136 60 LINE",
"106 101 LINE",
"94 158 LINE",
"94 500 LINE",
"46 500 LINE",
"46 153 LINE",
"62 82 LINE",
"103 24 LINE",
"169 -14 LINE",
"247 -27 LINE",
"356 0 LINE",
"410 59 LINE",
"415 30 LINE",
"454 -17 LINE",
"491 13 LINE"
);
}
);
width = 521;
}
);
unicode = 0075;
},
{
glyphname = ucircumflex;
lastChange = "2018-11-17 01:00:03 +0000";
layers = (
{
layerId = "FBE272FB-87FC-41E6-9500-16DB44470123";
paths = (
{
closed = 1;
nodes = (
"460 51 LINE",
"448 113 LINE",
"448 500 LINE",
"401 500 LINE",
"401 120 LINE",
"331 42 LINE",
"245 22 LINE",
"185 32 LINE",
"136 60 LINE",
"106 101 LINE",
"94 158 LINE",
"94 500 LINE",
"46 500 LINE",
"46 153 LINE",
"62 82 LINE",
"103 24 LINE",
"169 -14 LINE",
"247 -27 LINE",
"356 0 LINE",
"410 59 LINE",
"415 30 LINE",
"454 -17 LINE",
"491 13 LINE"
);
},
{
closed = 1;
nodes = (
"261 639 LINE",
"341 571 LINE",
"372 607 LINE",
"278 689 LINE",
"245 689 LINE",
"151 607 LINE",
"181 571 LINE"
);
}
);
width = 521;
}
);
unicode = 00FB;
},
{
glyphname = udieresis;
lastChange = "2018-11-17 01:03:57 +0000";
layers = (
{
layerId = "FBE272FB-87FC-41E6-9500-16DB44470123";
paths = (
{
closed = 1;
nodes = (
"460 51 LINE",
"448 113 LINE",
"448 500 LINE",
"401 500 LINE",
"401 120 LINE",
"331 42 LINE",
"245 22 LINE",
"185 32 LINE",
"136 60 LINE",
"106 101 LINE",
"94 158 LINE",
"94 500 LINE",
"46 500 LINE",
"46 153 LINE",
"62 82 LINE",
"103 24 LINE",
"169 -14 LINE",
"247 -27 LINE",
"356 0 LINE",
"410 59 LINE",
"415 30 LINE",
"454 -17 LINE",
"491 13 LINE"
);
},
{
closed = 1;
nodes = (
"188 605 LINE",
"207 605 LINE",
"222 616 LINE",
"228 634 LINE",
"222 653 LINE",
"207 664 LINE",
"188 664 LINE",
"173 653 LINE",
"167 634 LINE",
"173 616 LINE"
);
},
{
closed = 1;
nodes = (
"310 605 LINE",
"329 605 LINE",
"345 616 LINE",
"350 634 LINE",
"345 653 LINE",
"329 664 LINE",
"310 664 LINE",
"295 653 LINE",
"289 634 LINE",
"295 616 LINE"
);
}
);
width = 521;
}
);
unicode = 00FC;
},
{
glyphname = ugrave;
lastChange = "2018-11-17 01:05:28 +0000";
layers = (
{
layerId = "FBE272FB-87FC-41E6-9500-16DB44470123";
paths = (
{
closed = 1;
nodes = (
"460 51 LINE",
"448 113 LINE",
"448 500 LINE",
"401 500 LINE",
"401 120 LINE",
"331 42 LINE",
"245 22 LINE",
"185 32 LINE",
"136 60 LINE",
"106 101 LINE",
"94 158 LINE",
"94 500 LINE",
"46 500 LINE",
"46 153 LINE",
"62 82 LINE",
"103 24 LINE",
"169 -14 LINE",
"247 -27 LINE",
"356 0 LINE",
"410 59 LINE",
"415 30 LINE",
"454 -17 LINE",
"491 13 LINE"
);
},
{
closed = 1;
nodes = (
"318 591 LINE",
"338 635 LINE",
"267 667 LINE",
"205 718 LINE",
"174 680 LINE",
"242 626 LINE"
);
}
);
width = 521;
}
);
unicode = 00F9;
},
{
glyphname = v;
lastChange = "2018-11-17 01:07:45 +0000";
layers = (
{
layerId = "FBE272FB-87FC-41E6-9500-16DB44470123";
paths = (
{
closed = 1;
nodes = (
"308 0 LINE",
"264 0 LINE",
"102 437 LINE",
"100 456 LINE",
"80 427 LINE",
"63 410 LINE",
"29 443 LINE",
"83 500 LINE",
"129 500 LINE",
"286 76 LINE",
"440 509 LINE",
"484 493 LINE"
);
}
);
width = 521;
}
);
unicode = 0076;
},
{
glyphname = w;
lastChange = "2018-11-27 13:42:23 +0000";
layers = (
{
guideLines = (
{
position = "{-15, 49}";
},
{
position = "{26, 139}";
}
);
layerId = "FBE272FB-87FC-41E6-9500-16DB44470123";
paths = (
{
closed = 1;
nodes = (
"429 0 LINE",
"339 0 LINE",
"264 348 LINE",
"256 348 LINE",
"186 0 LINE",
"92 0 LINE",
"30 498 LINE",
"77 502 LINE",
"131 49 LINE",
"151 49 LINE",
"228 420 LINE",
"291 420 LINE",
"371 49 LINE",
"391 49 LINE",
"444 502 LINE",
"491 498 LINE"
);
}
);
width = 521;
}
);
unicode = 0077;
},
{
glyphname = x;
lastChange = "2018-11-17 01:22:31 +0000";
layers = (
{
layerId = "FBE272FB-87FC-41E6-9500-16DB44470123";
paths = (
{
closed = 1;
nodes = (
"445 83 LINE",
"431 46 LINE",
"411 33 LINE",
"391 44 LINE",
"275 251 LINE",
"446 483 LINE",
"407 511 LINE",
"250 296 LINE",
"131 506 LINE",
"92 506 LINE",
"50 447 LINE",
"89 419 LINE",
"98 432 LINE",
"109 467 LINE",
"119 431 LINE",
"219 254 LINE",
"45 16 LINE",
"83 -12 LINE",
"244 208 LINE",
"357 6 LINE",
"415 -20 LINE",
"470 15 LINE",
"490 67 LINE"
);
}
);
width = 521;
}
);
unicode = 0078;
},
{
glyphname = y;
lastChange = "2018-11-17 01:25:56 +0000";
layers = (
{
layerId = "FBE272FB-87FC-41E6-9500-16DB44470123";
paths = (
{
closed = 1;
nodes = (
"465 521 LINE",
"411 487 LINE",
"411 121 LINE",
"352 53 LINE",
"271 22 LINE",
"214 31 LINE",
"148 64 LINE",
"114 119 LINE",
"95 190 LINE",
"95 500 LINE",
"47 500 LINE",
"47 184 LINE",
"69 99 LINE",
"115 28 LINE",
"199 -16 LINE",
"277 -27 LINE",
"381 13 LINE",
"411 47 LINE",
"411 -23 LINE",
"393 -87 LINE",
"351 -145 LINE",
"293 -175 LINE",
"227 -175 LINE",
"171 -160 LINE",
"137 -133 LINE",
"116 -81 LINE",
"71 -100 LINE",
"97 -162 LINE",
"148 -205 LINE",
"220 -224 LINE",
"304 -224 LINE",
"384 -184 LINE",
"437 -108 LINE",
"459 -31 LINE",
"459 461 LINE",
"490 480 LINE"
);
}
);
width = 521;
}
);
unicode = 0079;
},
{
glyphname = ydieresis;
lastChange = "2018-11-17 01:26:16 +0000";
layers = (
{
layerId = "FBE272FB-87FC-41E6-9500-16DB44470123";
paths = (
{
closed = 1;
nodes = (
"465 521 LINE",
"411 487 LINE",
"411 121 LINE",
"352 53 LINE",
"271 22 LINE",
"214 31 LINE",
"148 64 LINE",
"114 119 LINE",
"95 190 LINE",
"95 500 LINE",
"47 500 LINE",
"47 184 LINE",
"69 99 LINE",
"115 28 LINE",
"199 -16 LINE",
"277 -27 LINE",
"381 13 LINE",
"411 47 LINE",
"411 -23 LINE",
"393 -87 LINE",
"351 -145 LINE",
"293 -175 LINE",
"227 -175 LINE",
"171 -160 LINE",
"137 -133 LINE",
"116 -81 LINE",
"71 -100 LINE",
"97 -162 LINE",
"148 -205 LINE",
"220 -224 LINE",
"304 -224 LINE",
"384 -184 LINE",
"437 -108 LINE",
"459 -31 LINE",
"459 461 LINE",
"490 480 LINE"
);
},
{
closed = 1;
nodes = (
"192 605 LINE",
"211 605 LINE",
"226 616 LINE",
"232 634 LINE",
"226 653 LINE",
"211 664 LINE",
"192 664 LINE",
"177 653 LINE",
"171 634 LINE",
"177 616 LINE"
);
},
{
closed = 1;
nodes = (
"314 605 LINE",
"333 605 LINE",
"349 616 LINE",
"354 634 LINE",
"349 653 LINE",
"333 664 LINE",
"314 664 LINE",
"299 653 LINE",
"293 634 LINE",
"299 616 LINE"
);
}
);
width = 521;
}
);
unicode = 00FF;
},
{
glyphname = z;
lastChange = "2018-11-17 01:27:42 +0000";
layers = (
{
layerId = "FBE272FB-87FC-41E6-9500-16DB44470123";
paths = (
{
closed = 1;
nodes = (
"389 0 LINE",
"49 0 LINE",
"49 45 LINE",
"408 453 LINE",
"123 453 LINE",
"76 398 LINE",
"40 428 LINE",
"101 500 LINE",
"472 500 LINE",
"472 455 LINE",
"113 47 LINE",
"374 47 LINE",
"422 80 LINE",
"451 142 LINE",
"495 126 LINE",
"461 51 LINE"
);
}
);
width = 521;
}
);
unicode = 007A;
},
{
glyphname = zero;
lastChange = "2018-11-17 01:34:39 +0000";
layers = (
{
layerId = "FBE272FB-87FC-41E6-9500-16DB44470123";
paths = (
{
closed = 1;
nodes = (
"429 621 LINE",
"352 696 LINE",
"261 719 LINE",
"168 696 LINE",
"92 621 LINE",
"47 510 LINE",
"30 391 LINE",
"32 266 LINE",
"51 166 LINE",
"92 68 LINE",
"165 1 LINE",
"261 -23 LINE",
"356 1 LINE",
"430 68 LINE",
"472 166 LINE",
"490 262 LINE",
"492 391 LINE",
"476 510 LINE"
);
},
{
closed = 1;
nodes = (
"78 388 LINE",
"94 497 LINE",
"132 594 LINE",
"193 653 LINE",
"261 670 LINE",
"327 653 LINE",
"339 641 LINE",
"133 94 LINE",
"131 96 LINE",
"97 180 LINE",
"80 268 LINE"
);
},
{
closed = 1;
nodes = (
"426 180 LINE",
"390 96 LINE",
"332 45 LINE",
"261 27 LINE",
"189 45 LINE",
"171 60 LINE",
"376 606 LINE",
"389 594 LINE",
"428 497 LINE",
"444 388 LINE",
"442 268 LINE"
);
}
);
width = 521;
}
);
unicode = 0030;
},
{
glyphname = one;
lastChange = "2018-11-17 01:36:15 +0000";
layers = (
{
layerId = "FBE272FB-87FC-41E6-9500-16DB44470123";
paths = (
{
closed = 1;
nodes = (
"308 700 LINE",
"253 700 LINE",
"39 500 LINE",
"71 465 LINE",
"260 642 LINE",
"260 48 LINE",
"90 48 LINE",
"90 0 LINE",
"475 0 LINE",
"475 48 LINE",
"308 48 LINE"
);
}
);
width = 521;
}
);
unicode = 0031;
},
{
glyphname = two;
lastChange = "2018-11-17 01:37:45 +0000";
layers = (
{
layerId = "FBE272FB-87FC-41E6-9500-16DB44470123";
paths = (
{
closed = 1;
nodes = (
"394 339 LINE",
"442 403 LINE",
"470 469 LINE",
"477 538 LINE",
"465 605 LINE",
"420 671 LINE",
"348 711 LINE",
"273 723 LINE",
"194 711 LINE",
"127 680 LINE",
"81 631 LINE",
"54 580 LINE",
"97 558 LINE",
"121 603 LINE",
"155 640 LINE",
"208 664 LINE",
"273 674 LINE",
"332 664 LINE",
"387 634 LINE",
"419 586 LINE",
"428 537 LINE",
"422 482 LINE",
"400 428 LINE",
"359 370 LINE",
"50 41 LINE",
"50 0 LINE",
"477 0 LINE",
"477 48 LINE",
"121 48 LINE"
);
}
);
width = 521;
}
);
unicode = 0032;
},
{
glyphname = three;
lastChange = "2018-11-17 01:39:10 +0000";
layers = (
{
layerId = "FBE272FB-87FC-41E6-9500-16DB44470123";
paths = (
{
closed = 1;
nodes = (
"378 384 LINE",
"307 424 LINE",
"232 440 LINE",
"196 440 LINE",
"428 639 LINE",
"428 700 LINE",
"0 700 LINE",
"0 652 LINE",
"370 652 LINE",
"136 452 LINE",
"136 393 LINE",
"228 393 LINE",
"290 379 LINE",
"346 346 LINE",
"385 301 LINE",
"400 241 LINE",
"400 183 LINE",
"389 131 LINE",
"359 86 LINE",
"312 51 LINE",
"251 31 LINE",
"182 24 LINE",
"116 34 LINE",
"58 56 LINE",
"10 98 LINE",
"-21 61 LINE",
"33 15 LINE",
"102 -13 LINE",
"181 -25 LINE",
"261 -17 LINE",
"334 8 LINE",
"394 52 LINE",
"434 111 LINE",
"448 178 LINE",
"448 247 LINE",
"428 323 LINE"
);
}
);
width = 421;
}
);
unicode = 0033;
},
{
glyphname = four;
lastChange = "2018-11-17 01:41:33 +0000";
layers = (
{
layerId = "FBE272FB-87FC-41E6-9500-16DB44470123";
paths = (
{
closed = 1;
nodes = (
"350 700 LINE",
"42 221 LINE",
"42 175 LINE",
"359 175 LINE",
"359 0 LINE",
"407 0 LINE",
"407 175 LINE",
"470 175 LINE",
"470 223 LINE",
"407 223 LINE",
"407 700 LINE"
);
},
{
closed = 1;
nodes = (
"100 223 LINE",
"359 624 LINE",
"359 223 LINE"
);
}
);
width = 521;
}
);
unicode = 0034;
},
{
glyphname = five;
lastChange = "2018-11-17 01:43:01 +0000";
layers = (
{
layerId = "FBE272FB-87FC-41E6-9500-16DB44470123";
paths = (
{
closed = 1;
nodes = (
"416 392 LINE",
"343 428 LINE",
"258 441 LINE",
"171 433 LINE",
"121 416 LINE",
"159 652 LINE",
"470 652 LINE",
"470 700 LINE",
"117 700 LINE",
"68 383 LINE",
"101 359 LINE",
"181 385 LINE",
"257 393 LINE",
"328 381 LINE",
"386 354 LINE",
"428 306 LINE",
"447 249 LINE",
"447 184 LINE",
"436 132 LINE",
"405 87 LINE",
"359 53 LINE",
"299 32 LINE",
"230 25 LINE",
"164 35 LINE",
"110 59 LINE",
"65 97 LINE",
"34 61 LINE",
"85 17 LINE",
"152 -11 LINE",
"228 -23 LINE",
"308 -15 LINE",
"382 9 LINE",
"441 54 LINE",
"481 112 LINE",
"495 179 LINE",
"495 256 LINE",
"470 330 LINE"
);
}
);
width = 521;
}
);
unicode = 0035;
},
{
glyphname = six;
lastChange = "2018-11-17 01:44:28 +0000";
layers = (
{
layerId = "FBE272FB-87FC-41E6-9500-16DB44470123";
paths = (
{
closed = 1;
nodes = (
"333 450 LINE",
"228 455 LINE",
"132 419 LINE",
"88 385 LINE",
"88 502 LINE",
"106 571 LINE",
"160 638 LINE",
"239 671 LINE",
"324 671 LINE",
"390 635 LINE",
"422 588 LINE",
"463 614 LINE",
"424 672 LINE",
"336 720 LINE",
"230 720 LINE",
"129 678 LINE",
"61 593 LINE",
"38 508 LINE",
"38 198 LINE",
"53 115 LINE",
"99 36 LINE",
"176 -10 LINE",
"270 -24 LINE",
"373 -2 LINE",
"455 64 LINE",
"495 157 LINE",
"499 256 LINE",
"472 340 LINE",
"413 410 LINE"
);
},
{
closed = 1;
nodes = (
"415 95 LINE",
"352 43 LINE",
"269 26 LINE",
"193 37 LINE",
"134 71 LINE",
"100 132 LINE",
"88 201 LINE",
"88 323 LINE",
"156 376 LINE",
"236 406 LINE",
"320 402 LINE",
"382 371 LINE",
"429 317 LINE",
"450 249 LINE",
"447 168 LINE"
);
}
);
width = 521;
}
);
unicode = 0036;
},
{
glyphname = seven;
lastChange = "2018-11-17 01:46:05 +0000";
layers = (
{
layerId = "FBE272FB-87FC-41E6-9500-16DB44470123";
paths = (
{
closed = 1;
nodes = (
"47 652 LINE",
"425 652 LINE",
"319 415 LINE",
"157 415 LINE",
"157 367 LINE",
"297 367 LINE",
"136 8 LINE",
"180 -12 LINE",
"350 367 LINE",
"471 367 LINE",
"471 415 LINE",
"372 415 LINE",
"478 652 LINE",
"478 700 LINE",
"47 700 LINE"
);
}
);
width = 521;
}
);
unicode = 0037;
},
{
glyphname = eight;
lastChange = "2018-11-17 01:47:16 +0000";
layers = (
{
layerId = "FBE272FB-87FC-41E6-9500-16DB44470123";
paths = (
{
closed = 1;
nodes = (
"413 331 LINE",
"359 372 LINE",
"308 400 LINE",
"352 426 LINE",
"406 470 LINE",
"434 525 LINE",
"437 588 LINE",
"407 649 LINE",
"363 688 LINE",
"309 710 LINE",
"260 717 LINE",
"212 711 LINE",
"158 688 LINE",
"114 650 LINE",
"84 588 LINE",
"87 525 LINE",
"115 470 LINE",
"165 428 LINE",
"212 400 LINE",
"164 373 LINE",
"110 333 LINE",
"57 282 LINE",
"32 219 LINE",
"27 154 LINE",
"45 86 LINE",
"98 28 LINE",
"172 -6 LINE",
"260 -17 LINE",
"348 -6 LINE",
"423 28 LINE",
"476 86 LINE",
"494 154 LINE",
"489 219 LINE",
"464 282 LINE"
);
},
{
closed = 1;
nodes = (
"153 500 LINE",
"134 538 LINE",
"132 578 LINE",
"152 620 LINE",
"183 648 LINE",
"224 664 LINE",
"260 669 LINE",
"296 664 LINE",
"338 648 LINE",
"368 620 LINE",
"389 578 LINE",
"387 538 LINE",
"368 500 LINE",
"327 466 LINE",
"260 428 LINE",
"194 466 LINE"
);
},
{
closed = 1;
nodes = (
"395 68 LINE",
"336 40 LINE",
"260 31 LINE",
"185 40 LINE",
"126 68 LINE",
"88 109 LINE",
"75 158 LINE",
"79 208 LINE",
"98 256 LINE",
"139 296 LINE",
"188 332 LINE",
"261 374 LINE",
"333 332 LINE",
"382 296 LINE",
"423 256 LINE",
"442 208 LINE",
"447 158 LINE",
"433 109 LINE"
);
}
);
width = 521;
}
);
unicode = 0038;
},
{
glyphname = nine;
lastChange = "2018-11-17 01:47:58 +0000";
layers = (
{
layerId = "FBE272FB-87FC-41E6-9500-16DB44470123";
paths = (
{
closed = 1;
nodes = (
"350 704 LINE",
"256 719 LINE",
"152 697 LINE",
"71 631 LINE",
"31 540 LINE",
"27 441 LINE",
"53 356 LINE",
"112 288 LINE",
"192 248 LINE",
"298 243 LINE",
"393 279 LINE",
"437 314 LINE",
"437 197 LINE",
"419 129 LINE",
"365 62 LINE",
"287 29 LINE",
"203 29 LINE",
"136 64 LINE",
"105 111 LINE",
"64 85 LINE",
"102 27 LINE",
"191 -20 LINE",
"296 -20 LINE",
"395 22 LINE",
"463 106 LINE",
"486 190 LINE",
"486 497 LINE",
"471 581 LINE",
"426 659 LINE"
);
},
{
closed = 1;
nodes = (
"369 322 LINE",
"290 292 LINE",
"205 296 LINE",
"143 327 LINE",
"96 381 LINE",
"75 447 LINE",
"79 528 LINE",
"110 601 LINE",
"173 652 LINE",
"257 670 LINE",
"333 658 LINE",
"391 624 LINE",
"425 564 LINE",
"438 495 LINE",
"438 376 LINE"
);
}
);
width = 521;
}
);
unicode = 0039;
},
{
glyphname = period;
lastChange = "2018-11-17 01:57:38 +0000";
layers = (
{
layerId = "FBE272FB-87FC-41E6-9500-16DB44470123";
paths = (
{
closed = 1;
nodes = (
"249 -2 LINE",
"273 -2 LINE",
"294 13 LINE",
"300 36 LINE",
"294 59 LINE",
"273 72 LINE",
"249 72 LINE",
"230 59 LINE",
"222 36 LINE",
"230 13 LINE"
);
}
);
width = 521;
}
);
unicode = 002E;
},
{
glyphname = comma;
lastChange = "2018-11-27 12:09:37 +0000";
layers = (
{
layerId = "FBE272FB-87FC-41E6-9500-16DB44470123";
paths = (
{
closed = 1;
nodes = (
"294 58 LINE",
"274 73 LINE",
"249 73 LINE",
"229 58 LINE",
"221 35 LINE",
"229 11 LINE",
"247 -2 LINE",
"243 -23 LINE",
"214 -63 LINE",
"247 -82 LINE",
"281 -39 LINE",
"296 3 LINE",
"301 35 LINE"
);
}
);
width = 521;
}
);
unicode = 002C;
},
{
glyphname = colon;
lastChange = "2018-11-27 12:08:47 +0000";
layers = (
{
layerId = "FBE272FB-87FC-41E6-9500-16DB44470123";
paths = (
{
closed = 1;
nodes = (
"249 249 LINE",
"274 249 LINE",
"295 264 LINE",
"303 287 LINE",
"295 312 LINE",
"274 326 LINE",
"249 326 LINE",
"229 312 LINE",
"221 287 LINE",
"229 264 LINE"
);
},
{
closed = 1;
nodes = (
"249 -2 LINE",
"274 -2 LINE",
"295 13 LINE",
"303 36 LINE",
"295 61 LINE",
"274 75 LINE",
"249 75 LINE",
"229 61 LINE",
"221 36 LINE",
"229 13 LINE"
);
}
);
width = 521;
}
);
unicode = 003A;
},
{
glyphname = semicolon;
lastChange = "2018-11-27 12:09:27 +0000";
layers = (
{
layerId = "FBE272FB-87FC-41E6-9500-16DB44470123";
paths = (
{
closed = 1;
nodes = (
"249 249 LINE",
"274 249 LINE",
"295 264 LINE",
"303 287 LINE",
"295 312 LINE",
"274 326 LINE",
"249 326 LINE",
"229 312 LINE",
"221 287 LINE",
"229 264 LINE"
);
},
{
closed = 1;
nodes = (
"294 58 LINE",
"274 73 LINE",
"249 73 LINE",
"229 58 LINE",
"221 35 LINE",
"229 11 LINE",
"247 -2 LINE",
"243 -23 LINE",
"214 -63 LINE",
"247 -82 LINE",
"281 -39 LINE",
"296 3 LINE",
"301 35 LINE"
);
}
);
width = 521;
}
);
unicode = 003B;
},
{
glyphname = ellipsis;
lastChange = "2018-11-17 01:51:04 +0000";
layers = (
{
layerId = "FBE272FB-87FC-41E6-9500-16DB44470123";
paths = (
{
closed = 1;
nodes = (
"97 72 LINE",
"73 72 LINE",
"54 59 LINE",
"46 36 LINE",
"54 13 LINE",
"73 -2 LINE",
"97 -2 LINE",
"118 13 LINE",
"124 36 LINE",
"118 59 LINE"
);
},
{
closed = 1;
nodes = (
"249 -2 LINE",
"273 -2 LINE",
"294 13 LINE",
"300 36 LINE",
"294 59 LINE",
"273 72 LINE",
"249 72 LINE",
"230 59 LINE",
"222 36 LINE",
"230 13 LINE"
);
},
{
closed = 1;
nodes = (
"449 72 LINE",
"424 72 LINE",
"406 59 LINE",
"397 36 LINE",
"406 13 LINE",
"424 -2 LINE",
"449 -2 LINE",
"469 13 LINE",
"476 36 LINE",
"469 59 LINE"
);
}
);
width = 521;
}
);
unicode = 2026;
},
{
glyphname = exclam;
lastChange = "2018-11-17 02:01:43 +0000";
layers = (
{
layerId = "FBE272FB-87FC-41E6-9500-16DB44470123";
paths = (
{
closed = 1;
nodes = (
"273 65 LINE",
"250 65 LINE",
"231 51 LINE",
"224 29 LINE",
"231 6 LINE",
"250 -7 LINE",
"273 -7 LINE",
"292 6 LINE",
"300 29 LINE",
"292 51 LINE"
);
},
{
closed = 1;
nodes = (
"238 679 LINE",
"285 679 LINE",
"285 155 LINE",
"238 155 LINE"
);
}
);
width = 521;
}
);
unicode = 0021;
},
{
glyphname = exclamdown;
lastChange = "2018-11-17 02:05:40 +0000";
layers = (
{
layerId = "FBE272FB-87FC-41E6-9500-16DB44470123";
paths = (
{
closed = 1;
nodes = (
"253 466 LINE",
"276 466 LINE",
"295 480 LINE",
"302 502 LINE",
"295 525 LINE",
"276 538 LINE",
"253 538 LINE",
"234 525 LINE",
"226 502 LINE",
"234 480 LINE"
);
},
{
closed = 1;
nodes = (
"288 -148 LINE",
"241 -148 LINE",
"241 376 LINE",
"288 376 LINE"
);
}
);
width = 521;
}
);
unicode = 00A1;
},
{
glyphname = question;
lastChange = "2018-11-17 02:01:36 +0000";
layers = (
{
layerId = "FBE272FB-87FC-41E6-9500-16DB44470123";
paths = (
{
closed = 1;
nodes = (
"274 61 LINE",
"251 61 LINE",
"232 48 LINE",
"224 25 LINE",
"231 3 LINE",
"250 -11 LINE",
"273 -11 LINE",
"292 3 LINE",
"300 25 LINE",
"293 47 LINE"
);
},
{
closed = 1;
nodes = (
"108 542 LINE",
"131 580 LINE",
"170 614 LINE",
"226 634 LINE",
"306 634 LINE",
"371 611 LINE",
"411 566 LINE",
"435 505 LINE",
"426 449 LINE",
"403 409 LINE",
"283 337 LINE",
"241 271 LINE",
"240 151 LINE",
"287 151 LINE",
"288 257 LINE",
"316 303 LINE",
"437 375 LINE",
"471 433 LINE",
"483 510 LINE",
"452 591 LINE",
"398 651 LINE",
"315 680 LINE",
"218 681 LINE",
"145 655 LINE",
"95 611 LINE",
"63 559 LINE",
"51 477 LINE",
"97 470 LINE"
);
}
);
width = 521;
}
);
unicode = 003F;
},
{
glyphname = questiondown;
lastChange = "2018-11-17 02:04:15 +0000";
layers = (
{
layerId = "FBE272FB-87FC-41E6-9500-16DB44470123";
paths = (
{
closed = 1;
nodes = (
"252 464 LINE",
"275 464 LINE",
"294 477 LINE",
"302 500 LINE",
"295 522 LINE",
"276 536 LINE",
"253 536 LINE",
"234 522 LINE",
"226 500 LINE",
"233 478 LINE"
);
},
{
closed = 1;
nodes = (
"422 -16 LINE",
"399 -54 LINE",
"361 -88 LINE",
"305 -109 LINE",
"225 -109 LINE",
"160 -87 LINE",
"119 -42 LINE",
"95 19 LINE",
"103 75 LINE",
"126 115 LINE",
"245 188 LINE",
"287 254 LINE",
"287 374 LINE",
"240 374 LINE",
"240 268 LINE",
"212 222 LINE",
"92 149 LINE",
"58 90 LINE",
"47 13 LINE",
"78 -67 LINE",
"133 -127 LINE",
"216 -155 LINE",
"313 -156 LINE",
"386 -129 LINE",
"436 -85 LINE",
"467 -32 LINE",
"479 50 LINE",
"432 56 LINE"
);
}
);
width = 521;
}
);
unicode = 00BF;
},
{
glyphname = bullet;
lastChange = "2018-11-27 13:10:46 +0000";
layers = (
{
layerId = "FBE272FB-87FC-41E6-9500-16DB44470123";
paths = (
{
closed = 1;
nodes = (
"234 183 LINE",
"287 183 LINE",
"334 217 LINE",
"348 268 LINE",
"334 320 LINE",
"287 349 LINE",
"234 349 LINE",
"191 320 LINE",
"173 268 LINE",
"191 217 LINE"
);
}
);
width = 521;
}
);
unicode = 2022;
},
{
glyphname = asterisk;
lastChange = "2018-11-27 12:24:36 +0000";
layers = (
{
layerId = "FBE272FB-87FC-41E6-9500-16DB44470123";
paths = (
{
closed = 1;
nodes = (
"376 605 LINE",
"285 575 LINE",
"285 670 LINE",
"237 670 LINE",
"237 575 LINE",
"144 605 LINE",
"130 558 LINE",
"222 529 LINE",
"166 452 LINE",
"204 422 LINE",
"261 501 LINE",
"318 422 LINE",
"356 452 LINE",
"300 529 LINE",
"391 558 LINE"
);
}
);
width = 521;
}
);
unicode = 002A;
},
{
glyphname = numbersign;
lastChange = "2018-11-27 13:06:47 +0000";
layers = (
{
layerId = "FBE272FB-87FC-41E6-9500-16DB44470123";
paths = (
{
closed = 1;
nodes = (
"363 419 LINE",
"231 419 LINE",
"287 596 LINE",
"242 611 LINE",
"181 419 LINE",
"29 419 LINE",
"29 371 LINE",
"165 371 LINE",
"124 240 LINE",
"29 240 LINE",
"29 191 LINE",
"106 191 LINE",
"48 8 LINE",
"93 -6 LINE",
"158 191 LINE",
"289 191 LINE",
"230 8 LINE",
"276 -6 LINE",
"340 191 LINE",
"491 191 LINE",
"491 239 LINE",
"355 239 LINE",
"399 371 LINE",
"492 371 LINE",
"492 419 LINE",
"413 419 LINE",
"470 596 LINE",
"425 611 LINE"
);
},
{
closed = 1;
nodes = (
"172 240 LINE",
"217 371 LINE",
"347 371 LINE",
"306 240 LINE"
);
}
);
width = 521;
}
);
unicode = 0023;
},
{
glyphname = slash;
lastChange = "2018-11-27 12:49:41 +0000";
layers = (
{
layerId = "FBE272FB-87FC-41E6-9500-16DB44470123";
paths = (
{
closed = 1;
nodes = (
"52 -110 LINE",
"96 -129 LINE",
"468 702 LINE",
"424 722 LINE"
);
}
);
width = 521;
}
);
unicode = 002F;
},
{
glyphname = backslash;
lastChange = "2018-11-27 12:49:12 +0000";
layers = (
{
layerId = "FBE272FB-87FC-41E6-9500-16DB44470123";
paths = (
{
closed = 1;
nodes = (
"53 702 LINE",
"425 -129 LINE",
"469 -110 LINE",
"97 722 LINE"
);
}
);
width = 521;
}
);
unicode = 005C;
},
{
glyphname = parenleft;
lastChange = "2018-11-27 12:12:54 +0000";
layers = (
{
layerId = "FBE272FB-87FC-41E6-9500-16DB44470123";
paths = (
{
closed = 1;
nodes = (
"268 78 LINE",
"240 211 LINE",
"240 356 LINE",
"266 490 LINE",
"300 573 LINE",
"349 642 LINE",
"311 671 LINE",
"256 592 LINE",
"219 504 LINE",
"192 361 LINE",
"192 206 LINE",
"220 67 LINE",
"255 -25 LINE",
"311 -111 LINE",
"349 -82 LINE",
"299 -6 LINE"
);
}
);
width = 521;
}
);
unicode = 0028;
},
{
glyphname = parenright;
lastChange = "2018-11-27 12:12:37 +0000";
layers = (
{
layerId = "FBE272FB-87FC-41E6-9500-16DB44470123";
paths = (
{
closed = 1;
nodes = (
"265 592 LINE",
"210 671 LINE",
"174 641 LINE",
"221 572 LINE",
"255 490 LINE",
"281 357 LINE",
"281 210 LINE",
"255 77 LINE",
"223 -5 LINE",
"171 -82 LINE",
"210 -111 LINE",
"269 -25 LINE",
"302 64 LINE",
"329 207 LINE",
"329 360 LINE",
"303 500 LINE"
);
}
);
width = 521;
}
);
unicode = 0029;
},
{
glyphname = braceleft;
lastChange = "2018-11-27 12:15:01 +0000";
layers = (
{
layerId = "FBE272FB-87FC-41E6-9500-16DB44470123";
paths = (
{
closed = 1;
nodes = (
"251 637 LINE",
"238 605 LINE",
"238 340 LINE",
"229 314 LINE",
"185 282 LINE",
"185 258 LINE",
"229 225 LINE",
"238 200 LINE",
"238 -66 LINE",
"251 -98 LINE",
"278 -120 LINE",
"343 -120 LINE",
"343 -72 LINE",
"303 -72 LINE",
"292 -64 LINE",
"286 -49 LINE",
"286 206 LINE",
"270 248 LINE",
"243 270 LINE",
"271 291 LINE",
"286 334 LINE",
"286 587 LINE",
"292 603 LINE",
"303 611 LINE",
"343 611 LINE",
"343 659 LINE",
"278 659 LINE"
);
}
);
width = 521;
}
);
unicode = 007B;
},
{
glyphname = braceright;
lastChange = "2018-11-27 12:16:09 +0000";
layers = (
{
layerId = "FBE272FB-87FC-41E6-9500-16DB44470123";
paths = (
{
closed = 1;
nodes = (
"270 -86 LINE",
"283 -54 LINE",
"284 211 LINE",
"293 237 LINE",
"338 269 LINE",
"338 293 LINE",
"294 326 LINE",
"285 351 LINE",
"286 617 LINE",
"273 649 LINE",
"246 671 LINE",
"181 672 LINE",
"181 624 LINE",
"222 624 LINE",
"233 615 LINE",
"239 600 LINE",
"238 345 LINE",
"254 303 LINE",
"281 281 LINE",
"253 260 LINE",
"237 217 LINE",
"236 -36 LINE",
"230 -52 LINE",
"219 -59 LINE",
"178 -59 LINE",
"178 -107 LINE",
"243 -108 LINE"
);
}
);
width = 521;
}
);
unicode = 007D;
},
{
glyphname = bracketleft;
lastChange = "2018-11-27 12:21:50 +0000";
layers = (
{
layerId = "FBE272FB-87FC-41E6-9500-16DB44470123";
paths = (
{
closed = 1;
nodes = (
"215 -120 LINE",
"319 -120 LINE",
"319 -72 LINE",
"263 -72 LINE",
"263 623 LINE",
"319 623 LINE",
"319 671 LINE",
"215 671 LINE"
);
}
);
width = 521;
}
);
unicode = 005B;
},
{
glyphname = bracketright;
lastChange = "2018-11-27 12:22:04 +0000";
layers = (
{
layerId = "FBE272FB-87FC-41E6-9500-16DB44470123";
paths = (
{
closed = 1;
nodes = (
"202 623 LINE",
"258 623 LINE",
"258 -72 LINE",
"202 -72 LINE",
"202 -120 LINE",
"306 -120 LINE",
"306 671 LINE",
"202 671 LINE"
);
}
);
width = 521;
}
);
unicode = 005D;
},
{
glyphname = hyphen;
lastChange = "2018-11-17 01:54:27 +0000";
layers = (
{
layerId = "FBE272FB-87FC-41E6-9500-16DB44470123";
paths = (
{
closed = 1;
nodes = (
"156 272 LINE",
"364 272 LINE",
"364 224 LINE",
"156 224 LINE"
);
}
);
width = 521;
}
);
unicode = 002D;
},
{
glyphname = emdash;
lastChange = "2018-11-27 13:03:05 +0000";
layers = (
{
layerId = "FBE272FB-87FC-41E6-9500-16DB44470123";
paths = (
{
closed = 1;
nodes = (
"0 272 LINE",
"521 272 LINE",
"521 224 LINE",
"0 224 LINE"
);
}
);
width = 521;
}
);
unicode = 2014;
},
{
glyphname = underscore;
lastChange = "2018-11-17 01:56:20 +0000";
layers = (
{
layerId = "FBE272FB-87FC-41E6-9500-16DB44470123";
paths = (
{
closed = 1;
nodes = (
"49 0 LINE",
"472 0 LINE",
"472 -48 LINE",
"49 -48 LINE"
);
}
);
width = 521;
}
);
unicode = 005F;
},
{
glyphname = guillemetleft;
lastChange = "2018-11-27 12:42:33 +0000";
layers = (
{
layerId = "FBE272FB-87FC-41E6-9500-16DB44470123";
paths = (
{
closed = 1;
nodes = (
"275 384 LINE",
"234 410 LINE",
"147 273 LINE",
"147 250 LINE",
"234 115 LINE",
"275 141 LINE",
"196 261 LINE"
);
},
{
closed = 1;
nodes = (
"334 410 LINE",
"247 273 LINE",
"247 250 LINE",
"334 115 LINE",
"374 141 LINE",
"297 261 LINE",
"374 384 LINE"
);
}
);
width = 521;
}
);
unicode = 00AB;
},
{
glyphname = guillemetright;
lastChange = "2018-11-27 12:42:38 +0000";
layers = (
{
layerId = "FBE272FB-87FC-41E6-9500-16DB44470123";
paths = (
{
closed = 1;
nodes = (
"287 411 LINE",
"247 386 LINE",
"326 262 LINE",
"248 141 LINE",
"287 115 LINE",
"374 251 LINE",
"374 273 LINE"
);
},
{
closed = 1;
nodes = (
"273 273 LINE",
"186 411 LINE",
"147 386 LINE",
"225 262 LINE",
"147 141 LINE",
"186 115 LINE",
"273 251 LINE"
);
}
);
width = 521;
}
);
unicode = 00BB;
},
{
glyphname = quotedbl;
lastChange = "2018-11-25 20:37:09 +0000";
layers = (
{
layerId = "FBE272FB-87FC-41E6-9500-16DB44470123";
paths = (
{
closed = 1;
nodes = (
"188 576 LINE",
"225 576 LINE",
"237 653 LINE",
"240 676 LINE",
"234 699 LINE",
"216 712 LINE",
"197 712 LINE",
"181 699 LINE",
"173 676 LINE",
"176 654 LINE"
);
},
{
closed = 1;
nodes = (
"296 576 LINE",
"333 576 LINE",
"344 653 LINE",
"347 676 LINE",
"341 699 LINE",
"324 712 LINE",
"305 712 LINE",
"289 699 LINE",
"281 676 LINE",
"284 654 LINE"
);
}
);
width = 521;
}
);
unicode = 0022;
},
{
glyphname = quotesingle;
lastChange = "2018-11-25 20:37:37 +0000";
layers = (
{
layerId = "FBE272FB-87FC-41E6-9500-16DB44470123";
paths = (
{
closed = 1;
nodes = (
"242 576 LINE",
"280 576 LINE",
"292 653 LINE",
"294 676 LINE",
"288 699 LINE",
"271 712 LINE",
"251 712 LINE",
"236 699 LINE",
"228 676 LINE",
"230 654 LINE"
);
}
);
width = 521;
}
);
unicode = 0027;
},
{
glyphname = "apostrophe-arm";
lastChange = "2018-11-25 20:28:08 +0000";
layers = (
{
layerId = "FBE272FB-87FC-41E6-9500-16DB44470123";
paths = (
{
closed = 1;
nodes = (
"294 698 LINE",
"274 713 LINE",
"249 713 LINE",
"229 698 LINE",
"221 675 LINE",
"229 651 LINE",
"247 638 LINE",
"243 617 LINE",
"214 577 LINE",
"247 558 LINE",
"281 601 LINE",
"296 643 LINE",
"301 675 LINE"
);
}
);
width = 521;
}
);
unicode = 055A;
},
{
glyphname = dollar;
lastChange = "2018-11-27 11:45:19 +0000";
layers = (
{
layerId = "FBE272FB-87FC-41E6-9500-16DB44470123";
paths = (
{
closed = 1;
nodes = (
"343 351 LINE",
"282 373 LINE",
"282 656 LINE",
"340 645 LINE",
"398 610 LINE",
"446 553 LINE",
"483 584 LINE",
"429 647 LINE",
"357 691 LINE",
"282 705 LINE",
"282 778 LINE",
"234 778 LINE",
"234 704 LINE",
"176 698 LINE",
"107 658 LINE",
"56 605 LINE",
"33 524 LINE",
"52 452 LINE",
"104 392 LINE",
"169 364 LINE",
"235 340 LINE",
"235 41 LINE",
"174 51 LINE",
"112 94 LINE",
"65 170 LINE",
"24 145 LINE",
"76 61 LINE",
"156 5 LINE",
"234 -8 LINE",
"234 -80 LINE",
"282 -80 LINE",
"282 -6 LINE",
"340 0 LINE",
"426 51 LINE",
"480 126 LINE",
"497 199 LINE",
"475 263 LINE",
"420 320 LINE"
);
},
{
closed = 1;
nodes = (
"132 432 LINE",
"96 477 LINE",
"82 523 LINE",
"99 580 LINE",
"138 619 LINE",
"191 651 LINE",
"234 655 LINE",
"234 393 LINE",
"186 410 LINE"
);
},
{
closed = 1;
nodes = (
"393 87 LINE",
"325 47 LINE",
"281 42 LINE",
"281 322 LINE",
"325 305 LINE",
"393 278 LINE",
"432 237 LINE",
"447 196 LINE",
"434 146 LINE"
);
}
);
width = 521;
}
);
unicode = 0024;
},
{
glyphname = euro;
lastChange = "2018-11-27 13:08:28 +0000";
layers = (
{
layerId = "FBE272FB-87FC-41E6-9500-16DB44470123";
paths = (
{
closed = 1;
nodes = (
"417 93 LINE",
"359 52 LINE",
"293 40 LINE",
"220 60 LINE",
"159 110 LINE",
"121 192 LINE",
"104 276 LINE",
"307 276 LINE",
"307 325 LINE",
"103 325 LINE",
"103 382 LINE",
"307 382 LINE",
"307 430 LINE",
"106 430 LINE",
"119 496 LINE",
"151 570 LINE",
"202 628 LINE",
"265 657 LINE",
"316 657 LINE",
"371 637 LINE",
"410 601 LINE",
"445 545 LINE",
"487 570 LINE",
"449 633 LINE",
"397 679 LINE",
"325 707 LINE",
"254 707 LINE",
"171 668 LINE",
"109 597 LINE",
"71 510 LINE",
"56 430 LINE",
"12 430 LINE",
"12 382 LINE",
"54 382 LINE",
"54 325 LINE",
"12 325 LINE",
"12 276 LINE",
"55 276 LINE",
"73 177 LINE",
"119 79 LINE",
"197 15 LINE",
"291 -11 LINE",
"379 5 LINE",
"454 59 LINE",
"508 149 LINE",
"465 174 LINE"
);
}
);
width = 521;
}
);
unicode = 20AC;
},
{
glyphname = sterling;
lastChange = "2018-11-27 11:48:32 +0000";
layers = (
{
layerId = "FBE272FB-87FC-41E6-9500-16DB44470123";
paths = (
{
closed = 1;
nodes = (
"415 57 LINE",
"387 37 LINE",
"347 27 LINE",
"299 35 LINE",
"254 69 LINE",
"198 100 LINE",
"167 104 LINE",
"180 146 LINE",
"195 322 LINE",
"312 322 LINE",
"312 370 LINE",
"200 370 LINE",
"215 548 LINE",
"236 595 LINE",
"265 619 LINE",
"294 630 LINE",
"329 625 LINE",
"364 609 LINE",
"394 573 LINE",
"431 605 LINE",
"393 647 LINE",
"343 672 LINE",
"290 680 LINE",
"242 662 LINE",
"197 623 LINE",
"169 560 LINE",
"152 370 LINE",
"52 370 LINE",
"52 322 LINE",
"148 322 LINE",
"133 155 LINE",
"116 101 LINE",
"85 56 LINE",
"36 20 LINE",
"65 -18 LINE",
"119 22 LINE",
"146 59 LINE",
"182 54 LINE",
"227 30 LINE",
"281 -10 LINE",
"349 -21 LINE",
"409 -7 LINE",
"452 26 LINE",
"480 79 LINE",
"437 100 LINE"
);
}
);
width = 521;
}
);
unicode = 00A3;
},
{
glyphname = yen;
lastChange = "2018-11-27 11:51:54 +0000";
layers = (
{
layerId = "FBE272FB-87FC-41E6-9500-16DB44470123";
paths = (
{
closed = 1;
nodes = (
"451 712 LINE",
"261 372 LINE",
"70 712 LINE",
"28 689 LINE",
"204 374 LINE",
"129 374 LINE",
"129 325 LINE",
"231 325 LINE",
"236 318 LINE",
"236 259 LINE",
"129 259 LINE",
"129 211 LINE",
"236 211 LINE",
"236 0 LINE",
"284 0 LINE",
"284 211 LINE",
"393 211 LINE",
"393 259 LINE",
"284 259 LINE",
"284 318 LINE",
"289 325 LINE",
"393 325 LINE",
"393 374 LINE",
"316 374 LINE",
"493 689 LINE"
);
}
);
width = 521;
}
);
unicode = 00A5;
},
{
glyphname = plus;
lastChange = "2018-11-27 11:29:53 +0000";
layers = (
{
layerId = "FBE272FB-87FC-41E6-9500-16DB44470123";
paths = (
{
closed = 1;
nodes = (
"285 488 LINE",
"237 488 LINE",
"237 330 LINE",
"77 330 LINE",
"77 283 LINE",
"237 283 LINE",
"237 121 LINE",
"285 121 LINE",
"285 283 LINE",
"444 283 LINE",
"444 330 LINE",
"285 330 LINE"
);
}
);
width = 521;
}
);
unicode = 002B;
},
{
glyphname = minus;
lastChange = "2018-11-27 11:30:36 +0000";
layers = (
{
layerId = "FBE272FB-87FC-41E6-9500-16DB44470123";
paths = (
{
closed = 1;
nodes = (
"77 330 LINE",
"77 283 LINE",
"444 283 LINE",
"444 330 LINE"
);
}
);
width = 521;
}
);
unicode = 2212;
},
{
glyphname = divide;
lastChange = "2018-11-27 11:42:05 +0000";
layers = (
{
layerId = "FBE272FB-87FC-41E6-9500-16DB44470123";
paths = (
{
closed = 1;
nodes = (
"77 330 LINE",
"77 283 LINE",
"444 283 LINE",
"444 330 LINE"
);
},
{
closed = 1;
nodes = (
"249 151 LINE",
"273 151 LINE",
"294 166 LINE",
"300 189 LINE",
"294 212 LINE",
"273 225 LINE",
"249 225 LINE",
"230 212 LINE",
"222 189 LINE",
"230 166 LINE"
);
},
{
closed = 1;
nodes = (
"249 380 LINE",
"273 380 LINE",
"294 395 LINE",
"300 418 LINE",
"294 441 LINE",
"273 454 LINE",
"249 454 LINE",
"230 441 LINE",
"222 418 LINE",
"230 395 LINE"
);
}
);
width = 521;
}
);
unicode = 00F7;
},
{
glyphname = equal;
lastChange = "2018-11-27 11:31:29 +0000";
layers = (
{
layerId = "FBE272FB-87FC-41E6-9500-16DB44470123";
paths = (
{
closed = 1;
nodes = (
"77 405 LINE",
"77 358 LINE",
"444 358 LINE",
"444 405 LINE"
);
},
{
closed = 1;
nodes = (
"77 255 LINE",
"77 208 LINE",
"444 208 LINE",
"444 255 LINE"
);
}
);
width = 521;
}
);
unicode = 003D;
},
{
glyphname = notequal;
lastChange = "2018-11-27 11:34:08 +0000";
layers = (
{
layerId = "FBE272FB-87FC-41E6-9500-16DB44470123";
paths = (
{
closed = 1;
nodes = (
"189 208 LINE",
"160 147 LINE",
"203 127 LINE",
"241 208 LINE",
"444 208 LINE",
"444 255 LINE",
"263 255 LINE",
"312 358 LINE",
"444 358 LINE",
"444 405 LINE",
"334 405 LINE",
"359 459 LINE",
"316 479 LINE",
"281 405 LINE",
"77 405 LINE",
"77 358 LINE",
"259 358 LINE",
"211 255 LINE",
"77 255 LINE",
"77 208 LINE"
);
}
);
width = 521;
}
);
unicode = 2260;
},
{
glyphname = greater;
lastChange = "2018-11-27 12:31:28 +0000";
layers = (
{
layerId = "FBE272FB-87FC-41E6-9500-16DB44470123";
paths = (
{
closed = 1;
nodes = (
"146 57 LINE",
"423 234 LINE",
"423 271 LINE",
"146 445 LINE",
"121 406 LINE",
"366 252 LINE",
"121 96 LINE"
);
}
);
width = 521;
}
);
unicode = 003E;
},
{
glyphname = less;
lastChange = "2018-11-27 12:28:21 +0000";
layers = (
{
layerId = "FBE272FB-87FC-41E6-9500-16DB44470123";
paths = (
{
closed = 1;
nodes = (
"375 445 LINE",
"98 268 LINE",
"98 231 LINE",
"375 57 LINE",
"400 96 LINE",
"155 250 LINE",
"400 406 LINE"
);
}
);
width = 521;
}
);
unicode = 003C;
},
{
glyphname = greaterequal;
lastChange = "2018-11-27 13:15:04 +0000";
layers = (
{
layerId = "FBE272FB-87FC-41E6-9500-16DB44470123";
paths = (
{
closed = 1;
nodes = (
"139 129 LINE",
"423 259 LINE",
"423 296 LINE",
"139 423 LINE",
"121 381 LINE",
"361 277 LINE",
"121 171 LINE"
);
},
{
closed = 1;
nodes = (
"122 46 LINE",
"419 46 LINE",
"419 94 LINE",
"122 94 LINE"
);
}
);
width = 521;
}
);
unicode = 2265;
},
{
glyphname = lessequal;
lastChange = "2018-11-27 13:15:36 +0000";
layers = (
{
layerId = "FBE272FB-87FC-41E6-9500-16DB44470123";
paths = (
{
closed = 1;
nodes = (
"160 277 LINE",
"400 381 LINE",
"382 423 LINE",
"98 296 LINE",
"98 259 LINE",
"382 129 LINE",
"400 171 LINE"
);
},
{
closed = 1;
nodes = (
"102 94 LINE",
"102 46 LINE",
"399 46 LINE",
"399 94 LINE"
);
}
);
width = 521;
}
);
unicode = 2264;
},
{
glyphname = asciitilde;
lastChange = "2018-11-27 11:42:48 +0000";
layers = (
{
layerId = "FBE272FB-87FC-41E6-9500-16DB44470123";
paths = (
{
closed = 1;
nodes = (
"379 318 LINE",
"364 291 LINE",
"337 280 LINE",
"313 283 LINE",
"297 293 LINE",
"261 351 LINE",
"226 375 LINE",
"178 381 LINE",
"124 359 LINE",
"96 310 LINE",
"89 258 LINE",
"137 253 LINE",
"142 293 LINE",
"158 320 LINE",
"185 331 LINE",
"209 328 LINE",
"225 318 LINE",
"261 260 LINE",
"296 236 LINE",
"344 230 LINE",
"398 252 LINE",
"426 301 LINE",
"433 353 LINE",
"385 358 LINE"
);
}
);
width = 521;
}
);
unicode = 007E;
},
{
glyphname = asciicircum;
lastChange = "2018-11-27 12:44:46 +0000";
layers = (
{
layerId = "FBE272FB-87FC-41E6-9500-16DB44470123";
paths = (
{
closed = 1;
nodes = (
"260 639 LINE",
"340 571 LINE",
"371 607 LINE",
"277 689 LINE",
"244 689 LINE",
"150 607 LINE",
"180 571 LINE"
);
}
);
width = 521;
}
);
unicode = 005E;
},
{
glyphname = percent;
lastChange = "2018-11-27 11:24:11 +0000";
layers = (
{
layerId = "FBE272FB-87FC-41E6-9500-16DB44470123";
paths = (
{
closed = 1;
nodes = (
"336 231 LINE",
"276 186 LINE",
"252 115 LINE",
"276 44 LINE",
"336 0 LINE",
"411 0 LINE",
"472 44 LINE",
"494 115 LINE",
"472 186 LINE",
"411 231 LINE"
);
},
{
closed = 1;
nodes = (
"395 48 LINE",
"352 48 LINE",
"315 73 LINE",
"302 115 LINE",
"315 156 LINE",
"352 183 LINE",
"395 183 LINE",
"431 156 LINE",
"445 115 LINE",
"431 73 LINE"
);
},
{
closed = 1;
nodes = (
"185 469 LINE",
"246 513 LINE",
"270 584 LINE",
"246 655 LINE",
"185 700 LINE",
"110 700 LINE",
"50 655 LINE",
"27 584 LINE",
"50 513 LINE",
"111 469 LINE"
);
},
{
closed = 1;
nodes = (
"126 652 LINE",
"171 652 LINE",
"206 627 LINE",
"219 584 LINE",
"206 543 LINE",
"171 517 LINE",
"126 517 LINE",
"90 543 LINE",
"77 584 LINE",
"90 627 LINE"
);
},
{
closed = 1;
nodes = (
"48 10 LINE",
"90 -13 LINE",
"476 689 LINE",
"434 712 LINE"
);
}
);
width = 521;
}
);
unicode = 0025;
},
{
glyphname = at;
lastChange = "2018-11-27 11:15:56 +0000";
layers = (
{
layerId = "FBE272FB-87FC-41E6-9500-16DB44470123";
paths = (
{
closed = 1;
nodes = (
"361 34 LINE",
"285 19 LINE",
"206 33 LINE",
"137 71 LINE",
"95 132 LINE",
"72 209 LINE",
"68 300 LINE",
"78 396 LINE",
"108 467 LINE",
"160 523 LINE",
"215 555 LINE",
"289 567 LINE",
"355 559 LINE",
"405 531 LINE",
"441 493 LINE",
"451 450 LINE",
"436 400 LINE",
"406 378 LINE",
"387 424 LINE",
"344 458 LINE",
"294 467 LINE",
"250 465 LINE",
"214 454 LINE",
"180 428 LINE",
"162 400 LINE",
"204 373 LINE",
"216 393 LINE",
"235 409 LINE",
"261 417 LINE",
"293 418 LINE",
"326 411 LINE",
"346 393 LINE",
"359 366 LINE",
"360 354 LINE",
"323 341 LINE",
"276 335 LINE",
"244 335 LINE",
"206 326 LINE",
"169 299 LINE",
"149 262 LINE",
"149 213 LINE",
"163 171 LINE",
"199 136 LINE",
"236 124 LINE",
"280 116 LINE",
"346 136 LINE",
"371 154 LINE",
"396 125 LINE",
"431 159 LINE",
"413 179 LINE",
"408 204 LINE",
"408 320 LINE",
"457 350 LINE",
"484 383 LINE",
"497 444 LINE",
"484 512 LINE",
"433 566 LINE",
"368 602 LINE",
"288 612 LINE",
"199 597 LINE",
"130 556 LINE",
"69 492 LINE",
"33 406 LINE",
"21 303 LINE",
"26 200 LINE",
"57 112 LINE",
"108 36 LINE",
"192 -11 LINE",
"287 -25 LINE",
"376 -10 LINE",
"449 34 LINE",
"505 92 LINE",
"476 125 LINE",
"423 70 LINE"
);
},
{
closed = 1;
nodes = (
"360 215 LINE",
"322 181 LINE",
"277 168 LINE",
"250 171 LINE",
"227 181 LINE",
"207 199 LINE",
"198 221 LINE",
"198 250 LINE",
"208 266 LINE",
"228 278 LINE",
"250 285 LINE",
"277 285 LINE",
"334 294 LINE",
"360 302 LINE"
);
}
);
width = 521;
}
);
unicode = 0040;
},
{
glyphname = paragraph;
lastChange = "2018-11-27 13:18:14 +0000";
layers = (
{
layerId = "FBE272FB-87FC-41E6-9500-16DB44470123";
paths = (
{
closed = 1;
nodes = (
"282 342 LINE",
"245 342 LINE",
"186 359 LINE",
"128 397 LINE",
"94 457 LINE",
"82 522 LINE",
"100 598 LINE",
"145 660 LINE",
"203 691 LINE",
"255 700 LINE",
"330 700 LINE",
"330 0 LINE",
"282 0 LINE"
);
},
{
closed = 1;
nodes = (
"374 0 LINE",
"422 0 LINE",
"422 700 LINE",
"374 700 LINE"
);
}
);
width = 521;
}
);
unicode = 00B6;
},
{
glyphname = degree;
lastChange = "2018-11-27 13:04:28 +0000";
layers = (
{
layerId = "FBE272FB-87FC-41E6-9500-16DB44470123";
paths = (
{
closed = 1;
nodes = (
"300 471 LINE",
"366 519 LINE",
"393 596 LINE",
"366 673 LINE",
"300 723 LINE",
"218 723 LINE",
"152 673 LINE",
"128 596 LINE",
"152 519 LINE",
"219 471 LINE"
);
},
{
closed = 1;
nodes = (
"235 675 LINE",
"287 675 LINE",
"328 647 LINE",
"342 596 LINE",
"328 549 LINE",
"287 518 LINE",
"235 518 LINE",
"193 549 LINE",
"178 596 LINE",
"193 647 LINE"
);
}
);
width = 521;
}
);
unicode = 00B0;
},
{
glyphname = bar;
lastChange = "2018-11-27 12:51:23 +0000";
layers = (
{
layerId = "FBE272FB-87FC-41E6-9500-16DB44470123";
paths = (
{
closed = 1;
nodes = (
"237 -114 LINE",
"285 -114 LINE",
"285 712 LINE",
"237 712 LINE"
);
}
);
width = 521;
}
);
unicode = 007C;
},
{
glyphname = acute;
lastChange = "2018-11-27 12:46:50 +0000";
layers = (
{
layerId = "FBE272FB-87FC-41E6-9500-16DB44470123";
paths = (
{
closed = 1;
nodes = (
"325 692 LINE",
"281 712 LINE",
"247 642 LINE",
"196 582 LINE",
"221 560 LINE",
"285 616 LINE"
);
}
);
width = 521;
}
);
unicode = 00B4;
},
{
glyphname = dieresis;
lastChange = "2018-11-27 12:44:56 +0000";
layers = (
{
layerId = "FBE272FB-87FC-41E6-9500-16DB44470123";
paths = (
{
closed = 1;
nodes = (
"190 605 LINE",
"209 605 LINE",
"224 616 LINE",
"230 634 LINE",
"224 653 LINE",
"209 664 LINE",
"190 664 LINE",
"175 653 LINE",
"169 634 LINE",
"175 616 LINE"
);
},
{
closed = 1;
nodes = (
"312 605 LINE",
"331 605 LINE",
"347 616 LINE",
"352 634 LINE",
"347 653 LINE",
"331 664 LINE",
"312 664 LINE",
"297 653 LINE",
"291 634 LINE",
"297 616 LINE"
);
}
);
width = 521;
}
);
unicode = 00A8;
},
{
glyphname = grave;
lastChange = "2018-11-27 12:46:58 +0000";
layers = (
{
layerId = "FBE272FB-87FC-41E6-9500-16DB44470123";
paths = (
{
closed = 1;
nodes = (
"300 560 LINE",
"325 582 LINE",
"274 642 LINE",
"240 712 LINE",
"196 692 LINE",
"236 616 LINE"
);
}
);
width = 521;
}
);
unicode = 0060;
},
{
glyphname = newGlyph;
lastChange = "2018-11-25 21:24:00 +0000";
layers = (
{
layerId = "FBE272FB-87FC-41E6-9500-16DB44470123";
paths = (
{
closed = 1;
nodes = (
"146 -3 LINE",
"219 -21 LINE",
"290 -8 LINE",
"356 20 LINE",
"398 60 LINE",
"449 -10 LINE",
"489 19 LINE",
"430 100 LINE",
"456 143 LINE",
"468 209 LINE",
"464 253 LINE",
"500 284 LINE",
"467 321 LINE",
"413 273 LINE",
"418 211 LINE",
"408 161 LINE",
"399 144 LINE",
"235 369 LINE",
"333 447 LINE",
"373 497 LINE",
"388 564 LINE",
"370 634 LINE",
"330 682 LINE",
"282 706 LINE",
"221 712 LINE",
"167 700 LINE",
"119 665 LINE",
"88 616 LINE",
"79 555 LINE",
"96 483 LINE",
"133 427 LINE",
"167 379 LINE",
"81 312 LINE",
"35 252 LINE",
"19 179 LINE",
"34 101 LINE",
"79 40 LINE"
);
},
{
closed = 1;
nodes = (
"128 557 LINE",
"135 597 LINE",
"156 630 LINE",
"188 652 LINE",
"223 661 LINE",
"268 657 LINE",
"299 641 LINE",
"325 611 LINE",
"338 563 LINE",
"327 521 LINE",
"297 481 LINE",
"206 409 LINE",
"174 453 LINE",
"142 504 LINE"
);
},
{
closed = 1;
nodes = (
"115 277 LINE",
"197 339 LINE",
"367 102 LINE",
"327 60 LINE",
"276 40 LINE",
"221 31 LINE",
"166 43 LINE",
"113 75 LINE",
"81 122 LINE",
"71 179 LINE",
"82 230 LINE"
);
}
